<svg width="360" height="270" viewBox="0 0 360 270" fill="none" xmlns="http://www.w3.org/2000/svg">
<path fill-rule="evenodd" clip-rule="evenodd" d="M300.214 142.431C302.188 141.124 306.301 147.085 304.514 149.171C303.056 151.317 298.674 143.891 300.214 142.431ZM293.221 140.061C294.386 140.672 295.141 141.199 294.21 142.6C288.259 143.829 290.606 136.229 293.221 140.061ZM287.414 127.706C289.877 127.349 293.059 129.926 290.953 131.886C289.887 131.739 288.921 131.375 287.633 131.854C283.553 132.714 282.601 127.67 287.414 127.706ZM285.038 138.305C286.645 140.62 286.489 144.144 286.241 147.276C283.226 146.603 283.784 140.216 285.038 138.305ZM274.432 129.817C272.321 129.619 270.503 126.676 272.557 124.877C274.791 123.727 278.964 126.212 278.961 128.791C278.815 131.359 276.628 130.408 274.432 129.817ZM266.422 109.142C267.947 109.646 270.75 115.564 269.139 116.862C266.988 117.958 264.433 110.437 266.422 109.142ZM255.7 115.6C257.228 111.195 262.268 118.984 261.063 121.451C259.075 123.169 255.512 117.788 255.7 115.6ZM257.248 100.757C259.656 103.958 255.63 105.945 253.049 106.968C247.085 108.404 255.013 98.7289 257.248 100.757ZM245.029 99.0007C243.567 95.8922 247.359 90.2391 247.285 95.7319C246.509 96.9641 246.937 104.061 245.029 99.0007ZM239.401 91.7065C239.279 88.8532 242.001 87.5201 241.689 91.8032C241.176 94.108 239.739 95.0439 239.401 91.7065ZM239.941 79.4791C240.291 80.62 240.325 81.7059 239.018 82.1137C228.318 87.0623 237.778 74.9728 239.941 79.4791ZM235.063 69.8931C237.107 71.0568 238.46 75.9175 234.76 73.6218C232.199 72.9327 230.065 72.5716 227.193 71.9757C221.632 67.8442 232.558 67.088 235.063 69.8931ZM222.796 120.282C220.369 115.626 226 116.629 228.583 117.638C232.599 120.742 224.912 121.603 222.796 120.282ZM222.9 78.5858C221.363 78.2972 219.877 77.2573 217.881 77.4788C214.698 70.38 225.492 73.7687 222.9 78.5858ZM219.152 82.9058C222.026 80.8966 220.379 90.1413 219.228 91.4425C215.075 96.0775 218.183 84.4464 219.152 82.9058ZM244.29 138.712C243.408 143.595 240.304 147.552 241.54 139.63C241.709 136.722 245.266 133.767 244.29 138.712ZM207.536 70.2861C208.675 66.2414 210.526 63.0956 212.065 59.0059C213.799 60.634 214.316 63.5231 212.952 65.8621C212.093 67.2564 207.932 75.9568 207.536 70.2861ZM208.082 83.5341C207.619 85.4508 209.475 87.5176 208.696 88.9949C203.419 89.583 205.776 74.1881 208.082 83.5341ZM196.48 52.7618C198.804 52.7639 205.594 51.9718 203.892 55.6379C201.318 56.0275 191.814 57.3071 196.48 52.7618ZM197.64 61.3716C199.208 62.0919 201.553 64.7399 200.109 66.4281C197.692 67.0774 195.357 62.8639 197.64 61.3716ZM197.946 92.2261C197.711 93.4316 198.256 98.8327 195.899 98.0786C194.035 93.9203 195.822 84.6517 199.791 92.3906C199.213 92.3393 198.655 92.2894 197.946 92.2261ZM196.579 80.2789C196.991 81.2538 195.426 83.5397 194.485 82.0354C193.679 80.9304 195.524 77.3824 196.579 80.2789ZM188.043 64.1317C190.327 67.4522 194.25 69.1502 197.263 72.335C200.267 78.069 191.739 73.4769 190.167 71.4227C188.73 70.1965 184.778 65.0802 188.043 64.1317ZM181.415 90.6789C183.611 88.5273 188.506 84.2632 186.189 90.5193C185.141 92.3674 180.467 95.0347 181.415 90.6789ZM185.653 81.2939C183.04 79.6447 181.477 82.3475 178.983 82.6429C176.331 78.178 187.114 75.2224 185.653 81.2939ZM172.271 67.3137C174.201 68.4802 178.785 71.9395 177.036 74.14C174.689 73.3837 170.25 69.5848 172.271 67.3137ZM159.54 110.862C159.721 109.283 162.182 108.698 161.362 111.295C162.096 112.26 163.712 113.462 163.294 115.32C161.738 118.177 158.169 113.138 159.54 110.862ZM158.696 98.2796C162.672 100.004 159.404 102.135 156.451 102.238C154.59 100.125 155.95 97.6876 158.696 98.2796ZM159.144 57.4766C155.344 53.2691 167.634 54.3565 166.4 58.1537C164.243 57.3652 161.668 58.2511 159.144 57.4766ZM295.548 125.744C289.403 119.39 281.729 115.573 275.823 108.997C255.265 85.082 262.064 93.7185 252.877 92.9039C250.86 91.0754 253.174 89.1534 255.699 89.717C245.394 72.3909 234.251 66.105 223.727 55.1004C222.502 53.267 220.621 58.3344 218.625 55.1004C217.249 53.3552 220.786 52.5122 219.495 51.1559C213.916 44.9269 216.099 47.3868 210.933 51.0616C209.411 49.1217 210.649 47.4792 212.432 45.9682C208.847 46.2927 209.815 43.8107 207.597 43.2422C199.497 44.5992 192.293 48.3493 184.215 48.6956C181.322 49.7113 180.945 56.0081 179.751 58.7022C177.199 59.9636 177.893 51.3281 178.983 49.9743C178.403 49.9697 176.328 48.0537 173.792 48.4474C145.561 47.3941 140.753 44.2076 151.523 61.3716C152.665 64.8102 157.216 62.3352 158.987 64.9835C159.511 66.3964 158.227 66.5132 156.839 66.3845C157.028 66.6253 157.216 66.8675 157.405 67.1087C153.917 70.251 160.596 73.3082 162.075 76.4005C163.737 78.6969 164.266 83.4697 167.698 81.1487C168.23 83.0239 170.802 81.2995 172.525 81.6363C174.4 83.1361 171.833 84.9832 170.095 85.2307C171.587 86.6679 169.399 87.6632 169.753 89.5904C171.983 92.9296 175.531 106.705 168.354 101.49C165.941 98.7434 168.948 97.5639 171.764 98.2325C171.971 96.9198 171.409 95.0527 170.819 93.5367C169.025 94.9897 166.13 95.3557 167.698 91.4425C164.398 92.2254 160.515 93.0231 156.741 93.0428C159.01 98.1608 153.535 96.1211 152.074 93.1085C150.896 92.8122 148.269 92.6061 146.602 92.5267C147.756 96.8312 150.754 102.328 152.074 107.154C153.602 105.686 156.632 108.067 155.229 109.462C155.229 109.462 152.969 110.513 152.074 110.714C153.633 114.962 153.667 140.446 155.229 133.7C155.601 130.706 159.217 127.623 157.478 125.854C153.627 122.695 158.788 120.666 160.08 124.257C163.096 120.712 167.775 118.336 169.753 113.638C171.685 114.749 172.664 113.079 173.715 110.714C174.528 112.421 177.593 112.354 178.488 110.32C179.217 108.679 177.94 107.886 180.159 106.81C182.359 105.751 181.377 103.248 182.849 100.97C184.098 100.046 184.816 103.218 184.143 104.447C185.055 104.817 186.295 102.733 187.23 103.779C192.611 105.427 198.82 103.423 204.349 102.701C206.501 102.238 211.541 111.265 213.371 113.638C218.61 106.377 219.809 111.825 215.526 115.6C219.092 119.777 223.658 125.728 227.193 130.489C226.723 127.643 231.138 123.242 231.531 126.397C228.495 130.826 233.414 137.399 235.471 140.854C236.736 142.789 237.805 145.069 238.62 147.276C242.197 146.089 246.983 143.92 250.533 141.5C248.508 140.157 250.285 138.299 252.721 139.249C251.604 138.171 253.062 136.9 252.55 135.071C251.286 132.197 248.771 131.133 246.063 130.29C241.435 135.673 234.345 127.188 244.971 128.753C242.929 125.987 239.64 121.028 236.379 119.821C233.107 120.659 229.202 117.648 233.795 116.1C230.548 112.698 233.042 111.742 231.42 109.556C230.161 107.817 227.383 106.311 226.592 103.855C226.562 101.481 224.146 98.5451 227.723 98.0174C226.42 98.2747 227.277 88.0158 229.202 91.9329C230.319 93.3525 228.006 98.8646 230.764 97.1371C231.458 100.977 232.712 100.497 235.063 101.49C235.938 102.527 236.834 103.847 237.946 105.164C240.207 101.304 246.119 101.939 243.727 106.719C243.031 106.006 242.364 106.432 241.217 107.154C248.9 114.929 253.7 123.019 260.099 127.608C266.498 132.197 271.404 137.74 278.236 141.906C280.775 149.199 279.435 151.297 287.339 152.812C288.86 155.289 289.101 157.615 291.64 156.377C291.945 156.909 292.614 157.46 293.221 158.362C293.356 156.362 297.826 149.317 298.476 154.369C297.027 156.137 295.645 159.625 294.21 161.548C295.266 163.812 297.115 166.652 297.44 169.647C300.749 166.851 304.574 162.723 307.959 160.401C307.761 159.085 307.973 157.842 308.639 156.377C310.289 162.23 310.454 157.05 313.522 157.947C314.392 158.626 315.657 157.967 316.795 157.803C317.087 156.711 318.131 155.159 316.802 153.72C311.861 140.815 302.081 134.556 295.548 125.744Z" fill="#FF5678"/>
<path fill-rule="evenodd" clip-rule="evenodd" d="M257.633 163.833C258.43 163.127 257.168 160.865 257.167 159.193C257.489 153.242 262.073 166.26 266.137 165.324C264.496 163.551 263.791 159.132 261.387 160.511C263.73 158.935 260.832 154.552 263.583 152.543C262.094 151.882 259.131 147.444 257.852 149.863C256.735 148.253 255.684 146.739 254.559 145.119C253.181 146.745 248.617 146.411 248.571 149.041C248.817 150.373 250.684 151.861 248.856 152.906C249.726 156.125 250.331 160.379 252.802 163.307C252.509 153.67 254.926 158.997 257.633 163.833ZM308.686 164.517C310.819 166.496 317.877 172.997 315.999 174.21C313.403 175.022 314.381 177.452 314.07 180.099C317.55 175.59 317.231 183.486 318.219 185.776C319.297 189.089 321.563 191.057 324.001 193.814C318.703 176.824 323.374 187.167 330.429 192.387C329.914 189.822 328.041 187.319 326.009 185.224C322.707 177.411 333.106 191.025 335.641 190.171C334.67 188.604 334.772 185.785 332.942 184.569C328.63 182.198 326.057 177.707 323.809 172.984C319.841 170.49 319.955 164.298 316.807 159.893C314.389 160.284 311.279 162.981 308.686 164.517ZM136.244 190.315C136.763 187.075 137.533 183.298 138.187 179.815C137.024 172.814 136.412 166.331 135.88 159.01C133.82 146.631 136.193 142.019 123.911 141.254C122.505 141.173 122.971 144.912 122.549 146.514C121.489 147.823 122 149.015 121.317 150.629C120.528 151.948 122.476 153.815 122.976 155.593C128.819 166.711 128.126 179.229 133.43 190.687C133.546 189.329 134.959 189.184 136.244 190.315ZM222.378 54.7734C219.977 52.202 217.212 49.083 214.334 46.4259C205.699 44.7025 197.049 48.1527 188.207 50.4069C175.075 53.2381 157.244 52.1862 147.311 48.7064C147.163 55.8713 153.179 61.5037 157.15 67.3927C166.832 80.0201 178.825 94.5498 174.857 110.299C199.751 91.1453 215.826 106.177 233.786 95.2041C234.707 96.3885 234.09 97.4527 233.742 99.2214C237.163 103.568 241.557 108.028 246.049 111.89C267.324 133.104 292.99 147.655 297.755 168.011C304.044 163.315 310.487 156.3 316.53 157.78C306.07 136.423 284.209 123.506 268.43 106.071C264.036 101.122 260.297 96.6715 256.249 91.1611C245.312 72.3923 233.119 66.1127 222.378 54.7734ZM275.592 56.1905C269.758 55.3654 268.676 55.3728 264.441 51.4493C262.93 56.4436 256.738 50.4773 259.952 59.8534C256.891 62.7816 256.072 57.3517 257.177 54.8711C248.007 54.9347 255.483 63.9439 256.892 68.556C254.722 71.3931 251.864 66.5641 251.362 64.23C247.815 65.3227 244.049 65.8933 240.124 66.8327C268.991 92.6349 249.511 87.8997 265.681 79.7768C266.606 79.0593 265.761 77.3475 267.369 76.3386C268.006 75.9546 268.647 76.2324 268.994 77.2617C270.775 86.7814 278.018 79.2129 271.818 75.0156C271.849 73.461 274.683 74.3287 274.416 72.4418C274.376 65.2239 279.966 59.6752 284.77 54.6355C284.062 54.4921 283.496 54.3771 282.913 54.2587C283.248 54.5775 283.52 54.838 283.859 55.1604C282.426 56.1666 280.853 55.7127 279.621 56.3744C279.274 59.1011 278.282 60.3238 276.401 60.14C276.67 58.8726 276.934 57.6249 277.206 56.3403C277.082 56.3118 276.401 56.1631 275.592 56.1905ZM156.338 93.1091C153.542 93.44 150.722 93.0153 147.527 93.0712C155.432 110.518 153.289 120.127 154.639 133.7C157.31 123.36 166.109 120.325 169.602 111.383C172.064 105.858 172.509 100.323 170.658 94.2531C170.299 93.0399 169.478 91.2814 167.806 91.9673C164.15 93.3064 160.392 92.9615 156.338 93.1091ZM154.666 88.8827C158.856 89.2005 163.353 89.4272 167.959 88.6404C165.454 84.1917 162.988 80.0366 159.567 75.7919C139.27 50.2143 151.759 53.7215 139.783 53.9521C146.702 64.3264 148.795 76.5217 148.27 88.8827H154.666ZM231.275 133.322C243.128 147.196 234.14 148.748 247.523 143.095C248.954 141.425 254.062 141.317 252.123 138.685C246.962 130.248 240.325 123.593 233.459 116.134C223.823 103.458 228.088 103.507 220.776 104.901C216.666 105.709 213.023 104.782 208.624 105.69C215.683 114.926 223.934 123.807 231.275 133.322ZM248.707 62.4571C249.046 62.3868 249.384 62.3158 249.655 62.2592C246.673 52.1215 255.71 52.2389 261.982 51.057C262.543 49.6746 262.862 48.4192 264.966 48.3689C270.47 51.6269 269.028 52.6084 276.302 53.3478C278.13 53.6371 279.298 54.1666 281.48 54.1458C282.204 53.5812 282.823 52.7603 284.058 52.6158C291.928 51.905 299.078 57.5961 301.464 65.0794C303.309 69.5959 301.462 74.386 299.794 78.8642C302.346 86.1081 323.713 85.9436 315.584 97.479C326.631 103.456 337.483 110.903 345.942 120.825C350.094 126.029 355.683 137.932 345.255 138.514C343.816 138.445 341.379 139.21 341.351 141.443C341.736 145.197 344.65 147.204 346.025 150.923C359.968 179.787 329.154 162.673 318.066 154.788C318.47 155.99 319.122 157.587 319.524 158.993C319.154 159.666 318.901 159.623 319.932 160.672C323.607 164.878 324.167 169.783 327.924 174.095C329.847 178.682 343.035 184.36 337.148 188.462C339.384 194.531 336.451 194.238 332.241 191.05C335.226 198.159 330.34 195.733 326.62 192.486C332.228 212.171 315.347 192.944 314.903 185.581C309.706 190.29 309.304 183.08 310.099 179.107C309.949 177.878 311.548 176.659 310.068 175.876C311.84 173.704 310.465 169.972 308.448 167.643C306.357 162.531 300.555 171.692 296.568 170.737C293.047 166.283 289.875 160.046 286.244 154.597C283.855 163.235 276.697 166.712 271.542 157.494C268.654 149.929 269.501 141.934 263.841 135.464C256.914 125.63 248.011 118.154 239.357 109.671C229.729 99.8665 235.348 98.8234 227.19 103.379C236.022 115.603 250.155 124.49 256.023 139.047C256.261 140.877 256.227 142.315 257.774 143.813C259.337 147.101 262.052 148.301 264.83 150.429C267.252 152.593 268.41 156.668 263.732 156.134C265.274 160.305 269.293 163.456 270.73 167.838C272.593 174.448 261.865 166.779 260.401 164.937C260.898 169.869 258.861 169.9 256.199 165.668C256.825 173.888 250.321 164.265 249.519 161.457C247.825 157.672 248.367 153.875 246.073 150.242C245.04 148.411 240.21 151.464 238.392 151.344C236.154 150.998 230.704 147.992 235.797 147.024C227.715 132.375 214.103 121.271 206.573 106.02C196.082 103.419 183.451 110.401 174.552 116.954C151.424 136.609 159.17 143.096 152.945 138.058C147.085 128.939 151.283 117.626 148.825 107.294C148.135 103.788 146.791 98.7292 144.767 96.0623C143.934 96.1343 143.377 96.3755 142.902 95.2656C142.494 93.2332 141.598 93.5155 139.696 94.3769C136.245 95.6812 133.716 96.7534 129.867 97.022C111.669 96.8642 94.1253 94.9464 75.7871 93.0599C91.7807 104.169 98.5778 115.376 109.371 124.735C121.085 135.917 123.855 132.463 123.011 138.469C126.223 140.062 133.439 137.627 135.344 142.902C140.586 156.99 139.345 172.405 141.808 187.359C138.611 186.853 141.595 197.048 136.486 193.872C133.619 202.747 126.89 182.827 126.688 180.584C124.879 171.772 123.784 163.019 120.495 154.386C119.544 155.333 119.053 158.596 116.691 157.416C109.936 154.54 103.522 150.805 96.9448 146.911C80.1876 138.273 65.1094 127.255 52.0636 113.597C44.7293 106.07 34.7026 98.4434 35.9684 86.5145C37.3637 74.2541 71.1974 64.4856 77.9186 61.5402C88.1258 56.3086 137.58 41.9199 138.617 51.1414C141.009 51.5137 141.079 48.8917 142.749 47.4651C143.774 46.4417 144.744 47.4865 145.496 45.753C155.998 47.0404 166.872 47.2313 177.784 46.8098C189.373 46.8481 198.976 39.7332 210.813 41.8925C221.233 46.7426 227.949 59.1686 238.511 65.0116C241.716 63.8092 244.874 62.4497 248.707 62.4571Z" fill="black"/>
<path fill-rule="evenodd" clip-rule="evenodd" d="M44.473 184.735C42.9497 194.629 40.8561 195.094 34.1332 201.003C27.5107 208.588 19.252 214.968 13.7928 223.845C26.0807 212.466 43.7636 213.907 49.1231 206.048C51.6783 202.013 51.6836 197.522 52.0604 192.595C54.0446 182.056 51.757 186.589 44.473 184.735ZM42.6255 184.258C41.4636 182.911 41.2545 185.421 39.7656 184.366C38.7446 179.451 40.404 174.021 40.5246 168.67C42.3749 150.735 45.6831 133.486 53.8569 117.141C81.2739 141.71 78.5236 130.311 70.4598 149.294C66.8855 154.499 65.2904 160.072 63.1519 166.274C60.834 172.776 57.6425 178.237 58.3924 185.653C58.0662 187.324 55.5138 184.972 55.6203 187.054C55.119 193.377 55.407 199.511 53.3985 205.802C51.4782 210.52 47.7735 213.799 42.4983 214.845C31.5419 218.647 21.2031 221.55 12.3736 230.187C0.411004 231.861 19.2271 208.6 22.4653 206.883C33.7494 194.051 41.0498 192.098 42.6255 184.258Z" fill="black"/>
<path fill-rule="evenodd" clip-rule="evenodd" d="M154.336 46.1766C153.399 46.095 152.461 46.0142 151.523 45.9326C152.461 46.0142 153.399 46.095 154.336 46.1766Z" fill="black"/>
<path fill-rule="evenodd" clip-rule="evenodd" d="M126.562 97.0195C127.15 97.0273 127.737 97.035 128.32 97.0427C127.731 97.035 127.146 97.0273 126.562 97.0195Z" fill="black"/>
<path fill-rule="evenodd" clip-rule="evenodd" d="M129.375 47.9866C128.676 48.3881 127.973 48.5139 127.266 48.021C127.968 48.0091 128.672 47.9978 129.375 47.9866Z" fill="black"/>
<path fill-rule="evenodd" clip-rule="evenodd" d="M135.352 48.2628C134.648 48.1967 133.946 48.1313 133.242 48.0652C133.945 48.1313 134.648 48.1967 135.352 48.2628Z" fill="black"/>
<path fill-rule="evenodd" clip-rule="evenodd" d="M274.922 52.8486C274.219 52.772 273.516 52.6961 272.812 52.6201C273.516 52.6961 274.219 52.7727 274.922 52.8486Z" fill="black"/>
<path fill-rule="evenodd" clip-rule="evenodd" d="M288.281 52.4977C287.696 52.4211 287.11 52.3445 286.523 52.2678C287.11 52.3445 287.696 52.4211 288.281 52.4977Z" fill="black"/>
<path fill-rule="evenodd" clip-rule="evenodd" d="M248.555 62.22C247.969 62.2242 247.383 62.2291 246.797 62.2333L248.555 62.22Z" fill="black"/>
<path fill-rule="evenodd" clip-rule="evenodd" d="M124.453 48.647C123.867 48.6526 123.281 48.6582 122.695 48.6639C123.279 48.2385 123.866 48.3039 124.453 48.647Z" fill="black"/>
<path fill-rule="evenodd" clip-rule="evenodd" d="M140.335 170.508C140.294 169.921 140.252 169.335 140.212 168.75C140.253 169.337 140.294 169.922 140.335 170.508Z" fill="black"/>
<path fill-rule="evenodd" clip-rule="evenodd" d="M130.781 96.691C131.134 96.6832 131.487 96.6755 131.836 96.6685C131.482 96.6762 131.131 96.6839 130.781 96.691Z" fill="black"/>
<path fill-rule="evenodd" clip-rule="evenodd" d="M336.445 193.358C336.798 193.358 337.152 193.359 337.5 193.361C337.146 193.361 336.796 193.36 336.445 193.358Z" fill="black"/>
<path fill-rule="evenodd" clip-rule="evenodd" d="M109.336 51.2146C108.867 51.2905 108.398 51.3658 107.93 51.4417C108.399 51.3658 108.868 51.2898 109.336 51.2146Z" fill="black"/>
<path fill-rule="evenodd" clip-rule="evenodd" d="M101.953 95.6358C102.306 95.6281 102.66 95.621 103.008 95.614C102.653 95.621 102.303 95.6288 101.953 95.6358Z" fill="black"/>
<path fill-rule="evenodd" clip-rule="evenodd" d="M205.433 41.3374C204.931 41.3416 204.429 41.3455 203.927 41.349C204.43 41.3455 204.931 41.3413 205.433 41.3374Z" fill="black"/>
<path fill-rule="evenodd" clip-rule="evenodd" d="M154.688 88.47C155.274 88.5522 155.86 88.6352 156.445 88.7175C155.859 88.6352 155.273 88.5522 154.688 88.47Z" fill="black"/>
<path fill-rule="evenodd" clip-rule="evenodd" d="M276.68 55.9084C276.327 55.9013 275.973 55.8943 275.625 55.8887C275.98 55.8964 276.33 55.902 276.68 55.9084Z" fill="black"/>
<path fill-rule="evenodd" clip-rule="evenodd" d="M273.516 56.6029C272.633 58.3628 270.17 57.9332 272.19 60.513C274.231 62.2212 271.503 63.2024 270.051 62.1322C267.28 59.331 270.199 56.5322 273.516 56.6029Z" fill="black"/>
</svg>
