<svg width="360" height="270" viewBox="0 0 360 270" fill="none" xmlns="http://www.w3.org/2000/svg">
<path fill-rule="evenodd" clip-rule="evenodd" d="M104.888 108.384C104.664 105.526 103.615 100.952 99.8806 101.166C96.7651 101.344 94.0904 106.222 94.6673 109.072C95.086 111.14 95.7589 109.965 96.3288 108.971C96.4033 108.841 96.4761 108.714 96.5464 108.598C97.2622 107.412 98.558 105.977 100.096 106.282C101.421 106.544 101.981 107.853 102.49 109.043C102.638 109.389 102.782 109.725 102.939 110.022C104.145 112.306 104.563 110.097 104.843 108.617C104.858 108.537 104.874 108.459 104.888 108.384ZM89.39 116.761C86.7378 117.723 89.6241 120.951 90.8792 121.65C90.6359 122.352 89.5267 122.987 88.6921 123.464L88.6918 123.465C88.464 123.595 88.2569 123.714 88.0931 123.819C87.1059 124.453 85.8448 124.839 84.6864 125.194L84.5483 125.236L84.433 125.272C81.1645 126.277 77.9878 126.424 74.6145 125.931C71.3731 125.457 67.6613 124.402 65.5702 121.745C64.6657 120.596 63.8342 118.847 64.7019 117.408C65.1069 116.737 65.8202 116.389 66.5462 116.035C67.2215 115.705 67.9078 115.371 68.3659 114.765C68.58 114.482 68.7364 114.151 68.8904 113.824C69.0314 113.525 69.1702 113.23 69.3506 112.979C69.4139 112.891 69.468 112.814 69.5155 112.746C69.6874 112.5 69.7718 112.379 69.8867 112.329C69.9971 112.28 70.1356 112.296 70.4074 112.328C70.5308 112.342 70.6819 112.359 70.87 112.375C72.7368 112.534 74.7274 112.654 76.5653 112.204C77.3535 112.012 78.1298 111.723 78.9022 111.436C79.484 111.22 80.0634 111.005 80.6442 110.832C82.0789 110.404 83.4394 109.505 84.549 108.535C87.1084 106.299 89.6139 103.869 91.9838 101.432C93.285 100.094 94.3277 98.544 95.3722 96.9915C96.2187 95.7332 97.0664 94.4732 98.0539 93.3229C98.5577 92.7362 99.0576 92.1163 99.5649 91.4878C101.574 88.998 103.695 86.3683 106.62 85.089C108.278 84.364 108.606 84.814 109.229 85.669H109.229C109.397 85.8993 109.587 86.1591 109.829 86.4333C110.798 87.5267 112.141 87.3407 113.45 87.159C113.729 87.1203 114.007 87.082 114.279 87.056C114.147 87.3555 114.004 87.6592 113.858 87.9669C113.28 89.1928 112.672 90.4816 112.644 91.8175C112.635 92.2615 112.752 92.6799 112.869 93.0937C112.98 93.4881 113.09 93.878 113.087 94.2816C113.084 94.8276 112.788 95.349 112.497 95.8612C112.351 96.1185 112.206 96.3741 112.101 96.6287C110.683 100.045 110.34 104.675 110.287 108.344C110.178 115.934 112.45 124.019 117.283 129.97C118.302 131.226 119.449 132.386 120.73 133.377C120.968 133.561 121.501 133.832 122.105 134.139H122.105C123.265 134.73 124.688 135.453 124.786 135.951C125.023 137.142 122.888 137.269 121.599 137.345H121.598C121.303 137.362 121.052 137.377 120.885 137.402C120.014 137.529 119.148 137.681 118.282 137.834H118.281H118.281V137.834H118.281C117.266 138.012 116.252 138.191 115.23 138.328C107.641 139.349 100.149 140.164 92.4971 139.752C92.1891 139.735 91.7834 139.78 91.3538 139.828C90.6022 139.912 89.7764 140.004 89.2673 139.789C88.5174 139.471 88.5698 138.903 88.6331 138.216C88.6493 138.042 88.6661 137.86 88.6707 137.673C88.7136 135.922 88.5396 134.192 88.3652 132.458C88.303 131.838 88.2404 131.217 88.1876 130.595C88.0604 129.087 88.3058 128.927 89.1024 128.408C89.3158 128.269 89.5689 128.104 89.8646 127.881C91.3134 126.787 92.7298 124.756 93.2027 123.016C94.0728 123.718 93.9744 124.21 93.8467 124.846C93.7768 125.195 93.6984 125.588 93.7662 126.082C94.0004 127.782 95.15 127.503 95.9083 126.365C97.0846 124.6 96.9806 121.809 95.8812 120.044C94.8965 118.465 91.383 116.038 89.39 116.761ZM150.051 179.442H150.051C150.774 180.024 151.496 180.605 152.231 181.171C152.972 181.743 153.532 182.309 154.083 183.054C154.122 183.107 154.16 183.157 154.196 183.205C154.777 183.986 154.842 184.074 154.395 184.974C153.903 185.96 153.183 186.745 152.466 187.527C151.942 188.097 151.419 188.667 150.987 189.314C150.61 189.878 150.276 190.465 149.943 191.048L149.943 191.049C149.247 192.271 148.556 193.484 147.483 194.471C146.774 192.872 145.858 195.209 147.035 194.962C146.694 195.975 146.089 196.894 145.485 197.812C145.121 198.365 144.757 198.918 144.45 199.491C143.486 201.295 142.432 202.933 141.29 204.629L141.255 204.501C141.224 204.389 141.192 204.276 141.161 204.163L141.08 203.869C141.034 203.702 140.987 203.535 140.941 203.368C140.094 203.571 140.411 204.093 140.645 204.479C140.717 204.598 140.782 204.705 140.802 204.785C140.822 204.87 140.858 204.933 140.894 204.995C140.978 205.141 141.061 205.286 140.94 205.723C140.849 206.054 140.597 206.349 140.357 206.632C140.258 206.748 140.161 206.862 140.078 206.975C139.521 207.736 138.997 208.517 138.471 209.299C138.394 209.413 138.317 209.528 138.24 209.643C137.807 210.285 137.579 210.846 137.34 211.437C137.25 211.657 137.159 211.882 137.055 212.116C136.845 212.59 136.645 212.717 136.394 212.877C136.237 212.977 136.06 213.089 135.848 213.307C135.488 213.678 135.13 214.221 134.787 214.741C134.587 215.044 134.391 215.34 134.205 215.588C132.695 217.596 131.339 219.895 130.308 222.179C129.86 223.173 129.239 224.032 128.617 224.891C127.876 225.916 127.134 226.941 126.683 228.196C126.446 228.855 126.294 229.533 126.141 230.21C126.02 230.746 125.899 231.281 125.737 231.807C125.604 232.236 125.439 232.653 125.274 233.071C125.011 233.735 124.748 234.399 124.618 235.108C124.513 235.675 124.51 236.296 124.508 236.883C124.506 237.287 124.504 237.674 124.469 238.018C124.448 238.225 124.407 238.465 124.363 238.727L124.362 238.727C124.259 239.333 124.137 240.05 124.197 240.726C124.377 242.765 125.223 244.535 126.233 246.234C121.626 247.796 116.384 248.234 111.55 248.121C109.08 248.063 106.265 248.04 103.847 248.611C103.557 248.68 103.28 248.752 103.011 248.823C101.986 249.09 101.07 249.329 99.9073 249.238C98.9339 249.162 97.9611 249.075 96.988 248.989C96.4947 248.945 96.0018 248.901 95.5086 248.859C95.8827 248.105 96.9971 247.18 97.7962 246.517C97.9115 246.422 98.0201 246.331 98.1193 246.248C98.3376 246.063 98.6248 245.947 98.9022 245.834C99.2 245.714 99.4865 245.597 99.6658 245.406C99.9639 245.089 100.107 244.415 100.219 243.884C100.256 243.708 100.29 243.548 100.325 243.422C101.413 239.52 102.216 235.583 102.897 231.592C104.1 224.539 104.567 217.359 105.011 210.263C105.025 210.031 105.085 209.777 105.144 209.523C105.215 209.219 105.287 208.915 105.28 208.651C105.271 208.328 105.24 208.063 105.21 207.811C105.167 207.452 105.128 207.12 105.163 206.681C105.181 206.454 105.321 206.189 105.459 205.929C105.608 205.651 105.752 205.377 105.74 205.161C105.73 204.997 105.599 204.962 105.457 204.925C105.282 204.878 105.091 204.827 105.091 204.523C105.093 204.051 105.495 203.454 105.871 202.9C106.124 202.524 106.365 202.168 106.46 201.882C106.514 201.721 106.422 201.529 106.329 201.336C106.252 201.175 106.175 201.014 106.18 200.868C106.176 200.967 106.443 199.764 106.454 199.717C106.488 199.567 106.565 199.46 106.641 199.353C106.747 199.205 106.853 199.058 106.843 198.796C106.838 198.651 106.755 198.489 106.669 198.322C106.526 198.043 106.376 197.751 106.568 197.5C106.67 197.366 106.904 197.402 107.137 197.438C107.382 197.476 107.626 197.514 107.714 197.353C107.826 197.15 107.632 196.697 107.426 196.218C107.226 195.751 107.016 195.26 107.069 194.952C107.162 194.416 107.408 193.877 107.655 193.333C107.877 192.847 108.099 192.358 108.216 191.866C108.252 191.713 108.263 191.532 108.274 191.343C108.298 190.96 108.323 190.549 108.565 190.291C108.907 189.926 109.224 189.991 109.596 190.068C109.864 190.123 110.159 190.184 110.514 190.096C109.648 189.362 109.48 188.718 109.736 187.645C109.936 186.808 110.334 185.878 111.25 186.714C111.113 185.464 111.118 185.269 112.051 184.322C112.205 184.166 112.362 183.975 112.524 183.777C112.841 183.393 113.175 182.985 113.533 182.78C113.697 182.608 113.861 182.436 114.025 182.264C114.247 182.495 114.511 182.626 114.816 182.656C115.312 182.63 115.761 182.589 116.18 182.551C117.969 182.39 119.197 182.278 121.146 183.55C121.417 183.728 121.688 183.893 121.956 184.057C122.69 184.504 123.403 184.939 124.042 185.57C124.452 185.976 124.829 186.412 125.205 186.848C125.721 187.445 126.237 188.042 126.839 188.562C127.172 188.849 127.504 189.121 127.832 189.391C128.651 190.064 129.449 190.72 130.191 191.543C130.327 191.694 130.462 191.848 130.598 192.003C131.319 192.826 132.057 193.667 133.026 194.157C133.106 192.888 132.474 191.742 131.859 190.629C131.806 190.533 131.753 190.438 131.702 190.343C131.622 190.199 131.049 189.812 131.062 189.855C131.027 189.734 131.075 189.621 131.123 189.513C131.17 189.404 131.215 189.298 131.174 189.191C131.514 189.498 131.857 189.855 132.207 190.22C132.886 190.927 133.591 191.661 134.345 192.106C136.073 193.128 135.487 191.354 135.109 190.209V190.208C135.079 190.119 135.051 190.032 135.025 189.952C134.011 186.8 132.174 183.778 130.05 181.234C126.334 176.782 120.135 171.813 114.203 174.614C108.323 177.391 105.226 182.055 103.539 188.259C101.581 195.46 100.683 202.34 100.497 209.799C100.39 214.07 99.9541 218.305 99.5051 222.552C99.3765 223.77 99.27 225.018 99.1624 226.277V226.277C98.9047 229.299 98.6417 232.381 98.0514 235.253C97.5266 234.489 97.2172 233.913 96.9553 233.055C96.9092 232.905 96.9082 232.756 96.9071 232.608C96.9053 232.413 96.9039 232.22 96.8009 232.026C96.758 231.946 96.6255 231.912 96.4961 231.878C96.3727 231.846 96.2518 231.815 96.2131 231.745L96.1379 231.609C95.4931 230.448 94.6353 228.902 94.3474 227.601C94.2851 227.32 94.27 227.085 94.2556 226.864C94.2335 226.524 94.2134 226.217 94.0289 225.824C93.8967 225.544 93.7947 225.515 93.7125 225.492C93.6165 225.466 93.5476 225.446 93.4889 225.042C93.4843 225.011 93.5254 224.973 93.5806 224.922C93.7072 224.806 93.909 224.62 93.806 224.281C93.5395 223.406 93.3289 223.746 93.1651 224.011C93.099 224.117 93.0403 224.211 92.9889 224.209C92.765 224.2 92.9826 223.274 93.1749 222.456C93.3001 221.923 93.4147 221.437 93.3887 221.281C93.3468 221.032 93.2646 220.994 93.1812 220.955C93.113 220.924 93.0441 220.892 92.9974 220.743C92.9046 220.443 92.7907 220.011 92.7207 219.595C92.6321 219.067 92.4971 218.687 92.3681 218.324C92.1877 217.817 92.0193 217.343 92.0067 216.544C91.9909 215.538 91.7581 214.75 91.5162 213.931C91.3601 213.404 91.2005 212.863 91.093 212.243C91.0669 212.096 91.1362 211.939 91.203 211.788C91.268 211.64 91.331 211.496 91.3025 211.371C91.2417 211.099 91.1112 210.852 90.9783 210.6C90.8518 210.359 90.7228 210.114 90.65 209.841C90.4725 209.174 90.5976 208.56 90.7224 207.947C90.817 207.482 90.9116 207.017 90.8739 206.53C90.8883 206.715 90.5238 205.7 90.5009 205.61C90.4299 205.331 90.4137 205.001 90.3976 204.667C90.3835 204.384 90.3694 204.099 90.322 203.841C90.2981 203.713 90.2608 203.575 90.2225 203.431C90.1026 202.985 89.9701 202.491 90.1901 202.118C90.2882 201.952 90.4464 201.89 90.6127 201.825C90.7839 201.758 90.9636 201.687 91.0954 201.497C90.8767 201.427 90.7185 201.39 90.6004 201.362C90.4591 201.33 90.3754 201.31 90.3143 201.262C90.226 201.192 90.1845 201.062 90.0836 200.745C90.0587 200.666 90.0298 200.575 89.9957 200.471C89.6663 199.465 89.6343 198.622 90.7256 199.287C90.6377 199.071 90.5262 198.84 90.4109 198.601C90.1641 198.09 89.9012 197.545 89.8249 197.049C89.7711 196.701 89.8129 196.358 89.8548 196.016C89.8924 195.705 89.9303 195.395 89.8969 195.081C89.8555 194.688 89.7964 194.329 89.7401 193.989C89.544 192.8 89.3875 191.851 90.1708 190.515C89.2286 190.034 89.2455 188.702 89.2606 187.511C89.2666 187.026 89.2726 186.563 89.2132 186.191C89.1727 185.939 89.1221 185.688 89.0718 185.442V185.441C88.8461 184.327 88.6373 183.298 89.4941 182.548C88.4562 181.803 88.6429 179.749 88.7853 178.183C88.825 177.747 88.8612 177.348 88.8665 177.027C88.8781 176.321 88.8567 175.61 88.8342 174.87V174.87C88.8117 174.13 88.7881 173.362 88.7966 172.542C88.8039 171.846 88.6584 171.313 88.4918 170.702C88.4366 170.5 88.3789 170.288 88.3237 170.06C88.1535 169.356 88.188 168.749 88.2228 168.132C88.2467 167.713 88.2706 167.29 88.2312 166.828C88.1954 166.409 88.1029 165.989 88.0094 165.563C87.9001 165.066 87.789 164.56 87.764 164.039C87.7464 163.674 87.7464 163.293 87.7468 162.908C87.7468 162.252 87.7471 161.586 87.6592 160.975C87.6195 160.698 87.5703 160.448 87.5225 160.204C87.4318 159.741 87.345 159.299 87.3316 158.731C87.3295 158.634 87.3101 158.506 87.2898 158.373C87.2564 158.156 87.2205 157.922 87.2532 157.774C87.2532 157.775 87.2567 157.767 87.2634 157.752V157.752C87.3214 157.624 87.6107 156.985 87.6086 157.316C87.6125 156.783 87.5116 156.256 87.4079 155.712C87.2434 154.853 87.0714 153.953 87.2919 152.929C87.5506 151.73 87.7728 151.748 88.7452 151.829H88.7456H88.7463C88.8883 151.841 89.0462 151.854 89.2226 151.865L89.4385 151.878C90.4598 151.941 91.4807 152.005 92.5041 152.009C92.9053 152.01 93.5578 151.933 94.3105 151.843C96.2205 151.617 98.7767 151.313 99.5136 152.03C100.141 152.642 100.036 154.937 99.9618 156.574C99.9351 157.155 99.9126 157.653 99.9277 157.963C99.9794 159.027 99.4405 159.683 98.8607 160.389C98.3903 160.961 97.8932 161.566 97.664 162.449C96.6888 166.201 98.3 171.155 102.697 171.476C106.799 171.775 110.734 168.403 110.17 164.258C109.944 162.594 109.178 160.784 107.731 159.81C107.074 159.367 106.068 159.289 105.086 159.213C103.978 159.128 102.901 159.045 102.384 158.443C102.049 158.053 102.059 156.831 102.066 155.939C102.069 155.622 102.071 155.345 102.057 155.164C102.041 154.948 102.007 154.685 101.97 154.402C101.834 153.365 101.662 152.045 102.182 151.672C102.93 151.133 105.241 151.123 106.094 151.121L106.167 151.12C107.349 151.118 108.43 151.115 109.606 150.916C110.758 150.721 111.909 150.614 113.055 150.507V150.507C114.553 150.367 116.044 150.229 117.522 149.895C120.114 149.311 122.509 148.7 124.95 147.656C125.337 150.257 126.177 152.615 127.03 155.006V155.007V155.007C127.28 155.708 127.531 156.412 127.771 157.127C128.274 158.615 129.056 160.133 129.825 161.501C129.921 161.671 130.021 161.885 130.127 162.112V162.112C130.575 163.071 131.129 164.256 131.866 163.262C131.936 163.559 131.932 163.786 131.927 164.002C131.921 164.254 131.916 164.493 132.03 164.811C132.243 165.413 133.099 166.121 133.812 166.71V166.711C134.092 166.942 134.35 167.155 134.538 167.336C134.989 167.77 135.471 168.133 135.957 168.5L135.957 168.5C136.168 168.659 136.38 168.818 136.59 168.984C136.656 169.036 136.755 169.043 136.853 169.05C136.961 169.057 137.066 169.064 137.124 169.13C137.25 169.272 137.229 169.448 137.212 169.589C137.2 169.682 137.191 169.759 137.226 169.803C138.02 170.801 139.24 171.588 140.393 172.332C140.821 172.608 141.239 172.878 141.623 173.15C143.648 174.588 145.663 176.026 147.636 177.532C148.455 178.157 149.253 178.8 150.051 179.442H150.051V179.442ZM120.008 126.804C121.501 128.524 123.812 131.15 126.124 131.668C128.386 132.175 131.936 131.471 133.954 130.36C133.865 129.853 134.362 128.974 134.825 128.153C135.107 127.653 135.377 127.176 135.495 126.818C135.608 126.472 135.627 126.203 135.646 125.934C135.66 125.739 135.674 125.544 135.724 125.319C135.765 125.134 135.839 125.037 135.907 124.948C136.002 124.824 136.085 124.716 136.044 124.404C135.974 123.865 135.585 123.571 135.204 123.283C134.913 123.063 134.627 122.847 134.493 122.528C134.437 122.397 134.499 121.93 134.55 121.544C134.577 121.338 134.601 121.156 134.602 121.062C134.614 120.306 134.547 119.825 134.164 119.176C133.558 118.148 132.647 117.314 131.748 116.491C131.266 116.049 130.787 115.61 130.361 115.147C129.989 114.742 129.767 114.319 129.534 113.877C129.419 113.657 129.3 113.432 129.16 113.203C129.01 112.957 128.815 112.735 128.622 112.515C128.364 112.222 128.11 111.933 127.975 111.6C127.86 111.318 127.827 110.982 127.794 110.643C127.763 110.335 127.733 110.025 127.641 109.749C127.467 109.228 127.197 108.76 126.927 108.292C126.724 107.94 126.521 107.588 126.359 107.212C125.587 105.429 125.388 103.307 125.204 101.356C125.186 101.166 125.169 100.978 125.151 100.792L125.042 100.817C122.718 101.36 120.484 101.881 119.198 99.3012C119.032 98.9683 119.001 98.2884 118.972 97.6366C118.941 96.9531 118.911 96.3006 118.729 96.1097C118.479 95.8478 115.973 96.0138 115.687 96.2497C114.659 97.0997 114.667 100.016 114.672 101.908V101.908C114.673 102.367 114.674 102.766 114.661 103.059C114.618 103.959 114.55 104.86 114.481 105.762C114.346 107.544 114.21 109.329 114.274 111.108C114.466 116.39 116.505 122.767 120.008 126.804ZM160.572 161.013C160.938 162.842 161.305 164.678 161.788 166.471C161.992 167.225 162.086 167.968 162.18 168.712C162.301 169.666 162.422 170.619 162.773 171.593C162.739 171.815 162.719 172.07 162.696 172.339C162.612 173.373 162.511 174.615 161.571 174.982C160.499 175.399 159.803 174.38 159.405 173.498C158.701 171.935 158.606 170.03 158.514 168.181C158.466 167.209 158.419 166.252 158.283 165.368C158.022 163.657 157.9 161.96 157.777 160.26C157.683 158.954 157.589 157.647 157.431 156.33C157.338 155.552 157.18 154.713 157.017 153.85C156.622 151.756 156.201 149.52 156.617 147.656C157.016 147.646 157.754 150.088 158.236 151.678C158.405 152.238 158.543 152.693 158.622 152.899C159.313 154.678 159.666 156.471 160.031 158.317C160.107 158.706 160.184 159.097 160.265 159.49C160.369 159.997 160.471 160.505 160.572 161.013Z" fill="#FF5678"/>
<path fill-rule="evenodd" clip-rule="evenodd" d="M287.708 246.935C286.083 247.439 284.56 248.182 282.995 248.846C281.218 249.599 279.977 249.731 278.037 249.728C270.525 249.717 263.09 250.102 255.564 250.254C253.508 250.296 251.421 250.316 249.366 250.279C248.535 250.264 247.721 250.169 246.896 250.101C246.362 250.057 244.035 250.377 243.724 250.19C242.852 249.665 243.37 246.285 243.264 245.202C243.08 243.321 242.603 241.508 241.94 239.741C239.567 233.418 235.576 227.249 230.53 222.737C237.353 219.871 244.796 216.094 252.368 217.793C255.252 218.441 259.074 219.288 260.559 222.078C262.144 225.056 263.532 228.331 265.344 231.183C267.369 234.37 269.519 237.1 272.451 239.49C273.608 240.434 279.437 246.228 278.551 241.755C278.268 240.32 277.218 238.987 276.38 237.816C275.954 237.22 273.656 235.266 274.014 234.575C274.415 233.801 278.559 233.255 279.447 233.009C281.281 232.501 283.106 231.958 284.933 231.424C284.272 232.669 280.678 237.381 282.974 238.585C283.818 239.028 286 237.461 286.925 237.185C288.5 236.717 289.939 237.025 291.488 237.489C291.447 238.249 289.954 238.259 289.458 238.779C288.732 239.538 288.222 241.587 288.791 242.497C289.852 244.193 293.956 242.462 295.791 243.106C293.728 245.235 290.492 246.071 287.708 246.935ZM185.198 176.932C185.219 176.976 185.18 177.037 184.933 177.251C184.858 176.981 184.724 176.921 184.559 176.996C184.692 176.851 184.801 176.776 184.933 177.251C185.037 177.161 185.124 177.049 185.198 176.932ZM185.825 176.039C185.776 176.202 185.664 176.278 185.493 176.274C185.502 176.246 185.51 176.219 185.517 176.199C185.63 175.844 185.782 175.904 185.731 175.25C185.799 175.36 185.851 175.47 185.813 175.58C185.921 175.746 185.925 175.899 185.825 176.039ZM167.565 206.723C167.738 206.305 167.784 205.819 168.008 205.434C167.788 205.824 167.785 206.305 167.565 206.723ZM238.147 249.924C235.427 249.815 232.777 249.864 230.059 249.982C224.25 250.235 218.415 250.272 212.617 250.738C209.781 250.966 207.054 251.053 204.21 250.958C201.723 250.874 199.227 250.963 196.747 250.754C194.025 250.525 191.476 249.773 188.728 249.732C186.101 249.693 182.972 249.389 180.424 249.773C179.984 249.839 179.747 250.119 179.228 250.187C178.511 250.28 177.502 249.988 176.768 249.939C175.479 249.852 174.055 249.994 172.798 249.694C172.366 249.591 172.063 249.433 171.645 249.264C171.267 249.111 170.42 248.994 170.212 248.939C171.41 248.493 168.752 247.582 168.538 247.533C168.484 247.714 168.603 247.968 168.8 248.214C168.12 247.693 168.848 247.885 167.736 247.357C167.268 247.134 166.384 246.991 165.86 246.932C165.355 246.875 165.083 246.935 164.853 246.922C164.9 246.871 164.945 246.802 164.99 246.71C165.361 245.944 164.23 245.07 163.594 245.584C163.668 245.734 163.787 246.011 163.931 246.282C163.925 246.275 163.919 246.269 163.913 246.262C163.677 245.989 163.234 245.293 162.793 244.825C163.352 244.516 162.668 244.097 162.41 243.666C162.233 243.763 162.038 243.845 161.936 243.98C162.083 243.673 162.448 243.396 162.234 242.799C162.173 242.628 162.011 242.371 161.809 242.191C162.001 242.341 162.201 242.509 162.461 242.473C162.136 241.982 162.018 241.797 161.894 241.305C161.807 240.959 162.291 240.624 161.831 240.311C161.845 239.985 162.039 238.486 161.225 239.009C161.225 239.009 161.225 239.009 161.225 239.009C161.225 239.008 161.225 239.008 161.226 239.007C161.747 237.413 162.633 235.768 163.292 234.209C164.826 230.58 166.404 226.923 168.01 223.326C170.665 217.375 173.437 211.439 176.493 205.647C179.522 199.906 182.828 194.353 185.687 188.533C188.445 182.918 191.661 177.545 194.438 171.938C195.746 169.298 197.499 167.114 197.945 164.046C198.089 163.052 198.135 160.98 196.631 161.353C195.653 161.595 194.285 164.043 193.654 164.839C193.088 164.063 189.899 159.502 189.044 162.219C188.31 164.549 192.903 165.564 191.071 167.911C190.889 168.143 190.136 168.378 189.889 168.593C189.408 169.012 188.968 169.751 188.596 170.255C187.75 171.407 187.049 172.63 186.266 173.821C186.119 174.045 185.58 174.552 185.539 174.814C185.517 174.953 185.634 175.096 185.725 175.241C185.088 175.805 184.285 176.303 184.136 177.216C184.18 177.235 184.221 177.239 184.26 177.231C183.668 177.85 182.918 179.351 182.811 179.508C182.013 180.668 181.23 181.882 180.442 183.106C180.016 183.768 179.271 184.546 179.026 185.29C178.941 185.547 179.189 186.008 178.958 186.249C178.35 186.882 177.756 186.747 177.301 188.02C177.122 188.521 177.106 189.221 176.819 189.651C176.357 190.341 175.698 190.665 175.267 191.407C174.45 192.815 173.47 194.36 172.955 195.781C172.953 195.787 172.953 195.792 172.95 195.798C172.933 195.686 172.908 195.566 172.88 195.434C172.588 195.959 172.296 196.483 172.005 197.007C172.509 196.909 172.779 196.771 172.902 196.547C172.888 196.622 172.864 196.7 172.818 196.782C172.56 196.9 172.288 196.975 172.005 197.007C171.809 197.33 171.626 197.66 171.455 197.996C171.372 198.166 171.09 199.203 170.972 199.989C170.928 199.684 170.885 199.41 170.88 199.374C170.51 200.086 170.14 200.799 169.77 201.51C170.441 200.994 170.403 200.907 171.043 200.894C170.237 200.91 169.017 202.042 168.905 203.129C168.887 203.306 168.995 203.499 169.091 203.682C169.069 203.679 169.047 203.676 169.021 203.674C168.178 203.602 168.424 203.772 168.105 204.475C168.227 204.426 168.937 204.149 169.204 203.933C169.233 204.026 169.238 204.11 169.193 204.182C168.984 204.515 167.275 204.3 168.372 205.038C167.46 204.425 167.005 206.437 167.315 207.128C167.07 207.483 166.777 207.809 166.502 208.137C165.826 208.944 165.453 209.555 165.01 210.536C164.256 212.208 163.356 213.867 162.532 215.506C162.219 216.129 161.854 216.66 161.471 217.239C160.79 218.266 160.91 218.01 161.447 219.128C161.245 219.063 160.947 219.221 160.659 219.452C160.816 219.186 161.015 218.988 161.447 219.128C160.765 217.709 160.18 219.439 159.867 220.252C159.881 220.252 159.892 220.248 159.905 220.247C159.863 220.311 159.831 220.367 159.811 220.411C159.491 221.071 159.113 221.476 159.386 222.168C159.465 221.783 159.777 221.485 159.91 221.154C159.723 221.961 158.843 222.928 158.577 223.462C158.356 223.906 158.325 224.372 158.053 224.855C157.799 225.308 157.569 225.614 157.373 226.133C156.427 228.642 155.966 231.436 155.369 234.071C154.663 237.185 154.373 240.494 154.221 243.681C154.177 244.607 154.153 245.426 154.487 246.305C154.535 246.433 155.055 247.112 155.042 247.36C154.969 248.656 152.535 248.387 151.598 248.349C150.109 248.29 149.096 248.53 147.665 248.737C146.346 248.928 145.051 248.823 143.711 249.147C141.486 249.685 138.173 250.537 136.021 249.355C134.981 248.784 133.671 247.129 132.916 246.2C131.987 245.056 131.675 243.892 131.508 242.435C131.224 239.944 131.205 237.191 132.071 234.809C136.096 223.744 143.001 213.686 148.956 203.616C154.544 194.167 160.809 185.21 166.408 175.786C169.368 170.805 172.929 165.876 176.45 161.272C180.049 156.566 182.616 151.446 185.154 146.12C187.783 147.514 190.567 148.948 193.508 149.579C195.179 149.937 196.84 149.828 198.526 149.944C199.768 150.029 200.808 150.323 202.073 150.355C207.622 150.496 214.034 149.831 219.338 148.192C220.611 147.799 221.749 147.391 222.942 146.825C224.465 146.101 224.877 145.794 224.963 147.476C225.131 150.73 225.662 153.894 225.912 157.129C226.156 160.283 226.791 163.393 227.353 166.509C227.637 168.087 227.944 169.664 228.177 171.25C228.355 172.454 228.889 174.128 228.677 175.331C228.443 176.66 227.184 178.007 226.464 179.141C225.733 180.291 224.998 181.438 224.269 182.589C222.902 184.749 221.541 186.797 219.927 188.778C216.934 192.45 214.386 196.29 211.548 200.083C208.535 204.11 206.03 208.459 203.073 212.527C201.511 214.676 199.914 216.703 198.89 219.123C198.04 221.13 196.331 222.977 195.287 224.964C193.914 227.572 192.169 229.961 190.806 232.583C189.854 234.414 188.017 236.276 187.824 238.404C187.501 241.974 190.895 238.407 191.681 237.411C192.735 236.076 193.89 233.74 195.473 233.016C196.604 232.499 198.256 232.555 199.483 232.151C200.769 231.727 202.032 231.286 203.331 230.899C205.861 230.143 208.301 229.076 210.761 228.116C213.306 227.122 215.851 226.12 218.349 225.015C219.506 224.504 220.48 224.241 221.715 224.019C222.247 223.923 224.149 223.024 224.568 223.101C225.271 223.229 226.241 225.296 226.774 225.828C227.596 226.648 228.521 227.318 229.289 228.199C230.801 229.937 232.404 231.788 233.716 233.675C236.646 237.893 239.387 242.501 240.43 247.581C240.898 249.861 240.352 250.012 238.147 249.924ZM161.926 244.41C161.908 244.372 161.897 244.335 161.89 244.3C161.899 244.335 161.907 244.37 161.926 244.41C162.273 244.204 162.365 244.314 162.4 244.482C162.226 244.37 162.063 244.329 161.926 244.41ZM161.118 242.056C161.104 241.992 161.097 241.933 161.095 241.878C161.1 241.937 161.105 241.996 161.118 242.056C161.308 241.929 161.466 241.965 161.619 242.056C161.456 241.968 161.282 241.946 161.118 242.056ZM161.467 240.515C161.573 240.507 161.695 240.449 161.831 240.311C161.719 240.424 161.614 240.543 161.517 240.666C161.519 240.651 161.522 240.637 161.523 240.621C161.525 240.591 161.5 240.555 161.467 240.515ZM126.911 227.606C126.121 229.468 125.792 231.506 125.121 233.414C124.608 234.873 124.403 236.314 124.268 237.841C124.736 238.186 124.726 238.49 124.237 238.753C124.202 239.084 124.19 239.417 124.201 239.751C124.074 240.723 124.262 241.568 124.519 242.499C124.926 243.976 125.442 245.037 126.2 246.314C121.602 247.874 116.362 248.313 111.537 248.2C108.93 248.139 106.005 248.134 103.463 248.777C100.727 249.47 98.3282 249.18 95.5171 248.938C95.9277 248.111 97.4971 246.731 98.292 246.156C98.6966 245.864 99.3621 245.814 99.6687 245.486C100.107 245.019 100.158 244.113 100.328 243.502C101.412 239.6 102.215 235.665 102.896 231.674C104.096 224.639 104.653 217.437 105.007 210.349C105.037 209.749 105.347 209.076 105.332 208.508C105.312 207.762 105.099 207.518 105.159 206.768C105.198 206.279 105.784 205.615 105.742 205.18C105.715 204.908 105.047 205.143 105.087 204.61C105.15 203.789 106.213 202.706 106.455 201.969C106.562 201.641 106.162 201.314 106.174 200.956C106.17 201.058 106.438 199.848 106.448 199.804C106.529 199.457 106.855 199.31 106.837 198.884C106.821 198.497 106.257 197.99 106.562 197.588C106.871 197.182 107.511 197.797 107.706 197.441C107.928 197.039 106.954 195.664 107.062 195.041C107.252 193.95 107.994 192.776 108.284 191.668C108.393 191.253 108.218 190.74 108.556 190.38C109.144 189.754 109.654 190.396 110.502 190.186C109.661 189.471 109.476 188.782 109.725 187.735C109.928 186.884 110.319 185.964 111.238 186.804C111.116 185.697 110.987 185.584 111.782 184.659C112.469 183.861 113.359 182.904 114.18 182.292C115.409 181.377 117.37 180.907 118.827 180.799C120.417 180.682 122.372 181.534 123.575 182.736C125.039 184.198 126.932 185.263 128.593 186.661C130.366 188.153 131.889 189.925 133.592 191.507C133.942 191.831 134.586 192.739 135.127 192.583C136.008 192.328 135.296 191.013 135.103 190.428C133.729 186.266 131.26 182.072 127.864 179.233C126.113 177.768 124.37 175.915 122.334 174.848C120.69 173.986 119.405 174.122 117.656 174.06C116.162 174.008 115.855 173.919 114.522 174.548C113.577 174.994 112.641 175.429 111.75 175.975C110.324 176.846 108.854 177.905 107.8 179.222C104.995 182.728 103.9 187.187 102.798 191.46C101.585 196.159 100.75 200.751 100.602 205.628C100.453 210.59 100.223 215.479 99.7341 220.421C99.4795 222.991 99.1867 225.555 98.8545 228.116C98.5486 230.478 98.5328 233.016 98.0568 235.335C97.4577 234.461 97.2714 233.787 96.9406 232.846C96.7173 232.213 96.4909 232.235 96.1678 231.767C95.4833 230.779 94.6276 228.904 94.358 227.684C94.1931 226.938 94.3457 226.564 94.0398 225.907C93.9452 225.705 93.4313 225.864 93.349 225.542C93.2899 225.312 93.612 225.134 93.5976 225.055C93.5638 224.874 94.0637 224.672 93.632 224.1C93.0185 223.289 93.3325 224.307 93.0013 224.293C92.7253 224.281 93.5533 221.48 93.4559 221.073C93.4214 220.93 92.9521 220.911 92.9145 220.777C92.8006 220.373 92.8262 219.788 92.7151 219.35C92.4434 218.28 92.0401 217.851 92.0204 216.629C91.9941 215.014 91.3957 213.87 91.1078 212.329C91.0522 212.033 91.3781 211.712 91.3173 211.457C91.1936 210.935 90.8076 210.478 90.6655 209.926C90.392 208.864 90.7573 207.364 90.6824 206.5C90.6167 205.744 90.4047 204.516 90.2651 203.577C90.038 202.048 90.4461 202.547 91.1102 201.585C90.1895 201.288 90.3066 201.549 90.0123 200.559C89.6727 199.416 89.704 198.742 90.7411 199.375C90.4655 198.696 89.954 197.864 89.8415 197.137C89.737 196.461 89.9842 195.84 89.9135 195.169C89.7219 193.353 89.1552 192.367 90.1871 190.605C88.861 189.925 89.4386 187.586 89.2304 186.281C89.0069 184.872 88.463 183.557 89.5113 182.639C88.4335 181.864 88.8602 179.639 88.8648 178.451C88.8666 177.912 89.0494 176.964 89.003 176.485C88.9706 176.149 88.7418 175.923 88.6753 175.531C88.4303 174.079 88.9713 172.641 88.6458 171.196C88.2791 169.569 88.2362 168.18 88.1104 166.584C87.9887 165.038 87.7497 163.431 87.6467 161.846C87.5707 160.67 87.1119 159.397 87.3232 158.179C87.3401 158.083 87.6199 157.216 87.628 157.411C87.615 157.098 87.3869 156.71 87.3763 156.524C87.3014 155.113 87.2744 153.963 87.3348 152.532C87.332 152.532 87.3288 152.531 87.326 152.531C87.5008 152.425 87.5946 152.204 87.602 151.861C88.9214 151.733 90.3649 152.055 91.6981 152.091C93.1352 152.129 94.5675 152.057 96.0029 151.991C96.9262 151.948 98.9163 151.511 99.6195 152.282C100.129 152.84 99.8083 155.715 99.8424 156.462C99.8824 157.346 100.33 158.732 99.8128 159.505C99.4922 159.985 98.7676 160.176 98.3943 160.702C98.1668 161.023 97.9819 161.56 97.8613 161.908C97.4964 162.956 97.3508 164.088 97.4067 165.195C97.6704 170.377 101.823 172.757 106.487 170.669C110.549 168.85 111.653 163.348 108.163 160.265C107.342 159.539 106.466 159.355 105.417 159.175C104.751 159.061 102.932 159.131 102.496 158.656C102.064 158.184 102.169 156.712 102.122 156.099C102.045 155.115 101.649 153.654 101.863 152.705C101.512 151.915 101.746 151.58 102.567 151.702C102.827 151.65 103.087 151.597 103.347 151.545C104.001 151.426 104.644 151.283 105.309 151.238C106.494 151.156 107.649 151.297 108.835 151.139C109.998 150.983 111.138 150.692 112.303 150.542C113.541 150.382 114.757 150.56 115.982 150.349C118.525 149.914 121.257 149.328 123.636 148.329C124.274 148.061 125.354 147.29 126.061 147.418C126.907 147.57 126.681 148.109 126.925 148.914C128.278 153.381 131.088 157.794 134.063 161.346C136.871 164.698 140.573 167.401 143.921 170.213C145.95 171.918 147.9 173.71 149.784 175.572C151.151 176.925 152.619 179.039 154.386 179.819C154.788 179.834 156.341 179.656 156.625 179.947C156.952 180.282 156.932 180.47 156.801 180.679C157.177 179.69 155.391 179.857 154.386 179.819C154.5 180.011 155.629 182.276 155.908 181.016C156.071 181.113 156.233 181.209 156.395 181.306C155.592 183.079 154.553 184.857 153.424 186.444C152.601 187.601 151.538 188.438 150.8 189.637C149.867 191.151 149.091 192.722 147.91 194.07C145.555 196.76 144.244 200.376 142.191 203.361C141.204 204.795 140.689 206.128 139.662 207.556C138.859 208.673 137.559 210.086 137.09 211.372C136.904 211.886 137.104 212.332 136.762 212.808C136.546 213.108 135.905 213.435 135.603 213.747C134.403 214.986 133.468 216.754 132.527 218.212C131.525 219.765 130.826 221.375 129.977 222.992C129.106 224.652 127.665 225.827 126.911 227.606ZM95.6901 234.688C95.0664 234.698 94.8326 234.701 94.763 234.428C94.7426 234.346 94.7363 234.238 94.7391 234.099C94.7363 234.238 94.7426 234.346 94.763 234.428C94.8326 234.701 95.0664 234.698 95.6901 234.688V234.688ZM95.7681 232.365C95.8328 232.539 95.444 232.836 94.4111 232.726C95.4341 232.835 95.8258 232.541 95.7681 232.365ZM93.2284 238.198C93.3209 238.28 93.4105 238.366 93.4981 238.454C93.4109 238.366 93.3209 238.28 93.2284 238.198ZM86.7867 250.397C85.9454 250.103 83.7573 249.583 82.3324 248.968C82.9681 249.146 83.6297 249.293 83.8842 249.382C84.8514 249.72 85.8189 250.058 86.7867 250.397C88.1571 245.456 93.3026 243.573 97.7056 241.749C95.5846 241.66 94.827 239.819 93.5448 238.503C94.8242 239.816 95.5941 241.661 97.7056 241.749C93.3033 243.573 88.1571 245.457 86.7867 250.397ZM81.9738 245.423C81.9253 245.503 81.8775 245.586 81.8294 245.676C81.6982 245.922 81.2039 247.019 80.9962 247.74C80.9543 246.999 81.3941 246.133 81.9738 245.423ZM86.818 151.62C86.8964 151.589 86.9597 151.584 87.017 151.588C86.7871 151.599 86.7245 151.872 86.7143 152.251C86.5146 152.039 86.4668 151.76 86.818 151.62ZM102.799 163.036C104.298 163.781 105.754 164.214 107.184 165.115C105.429 166.479 99.8262 168.683 99.9935 164.466C100.013 163.975 100.3 162.655 100.749 162.363C101.431 161.919 102.205 162.741 102.799 163.036ZM85.6336 143.404C92.2367 145.708 99.9292 145.138 106.64 144.014C113.851 142.807 121.05 142.096 128.035 139.836C128.042 140.809 128.463 141.827 127.693 142.629C127.088 143.258 125.779 143.377 124.98 143.641C122.892 144.334 121.099 145.343 118.916 145.756C116.471 146.22 114.029 146.211 111.562 146.485C110.669 146.584 109.83 146.744 108.991 146.906C107.829 146.923 106.919 147.08 105.759 147.402C101.611 147.422 97.4904 147.545 93.3592 147.051C91.2611 146.8 89.1858 146.492 87.0824 146.278C85.1122 146.077 85.552 145.228 85.6336 143.404ZM83.1076 125.68C79.219 126.754 75.2084 126.432 71.3827 125.203C68.6159 124.314 64.9459 123.011 64.3641 119.645C63.9798 117.423 65.3112 117.021 66.8767 116.099C67.6259 115.657 67.9901 115.324 68.4939 114.577C68.7931 114.133 69.0617 113.019 69.3974 112.715C70.2151 111.975 72.796 112.625 74.0756 112.568C75.9825 112.482 77.2749 111.842 79.0292 111.276C82.1278 110.276 84.0888 109.065 86.4942 106.778C88.8339 104.554 91.5813 102.292 93.4731 99.6705C95.592 96.7356 97.6194 93.8796 99.9274 91.0804C101.638 89.0062 104.74 84.8542 107.809 84.8732C109.349 84.8831 109.121 86.3357 110.345 87.074C111.461 87.7479 112.923 87.279 114.15 87.1622C113.341 89.0013 112.219 90.893 112.616 92.9743C112.839 94.1397 112.957 94.5423 112.501 95.6451C112.086 96.6527 111.636 97.5457 111.378 98.6246C110.374 102.83 109.9 107.562 110.32 111.862C111.049 119.305 113.599 126.989 119.178 132.244C120.45 133.442 121.849 134.399 123.407 135.187C124.96 135.974 125.089 136.792 123.164 137.144C119.415 137.827 115.609 138.295 111.833 138.802C108.063 139.309 104.225 139.839 100.422 139.917C98.5409 139.955 96.6713 140.19 94.7904 140.056C93.8538 139.989 92.9233 139.822 91.9839 139.796C91.164 139.774 89.9399 140.183 89.1767 139.86C87.982 139.355 88.5762 135.858 88.4886 134.644C88.3878 133.251 87.5085 130.638 88.0306 129.321C88.3976 128.397 89.7441 128.009 90.4416 127.289C91.5866 126.108 92.6691 124.708 93.1064 123.099C94.5559 124.269 93.3089 125.019 93.7487 126.446C94.229 128.003 95.1145 127.513 95.8078 126.445C96.9648 124.662 96.8875 121.906 95.7808 120.129C95.1402 119.101 94.0996 118.328 93.0319 117.778C92.1681 117.333 90.256 116.461 89.2994 116.847C86.7031 117.897 89.4663 120.997 90.7861 121.734C90.469 122.649 88.2201 123.971 87.3626 124.362C86.0889 124.943 84.4749 125.302 83.1076 125.68ZM118.742 97.2827C118.776 97.7815 118.83 98.2583 118.994 98.7357C119.33 99.7088 120.002 100.552 120.928 101.034C122.723 101.969 126.366 100.623 127.944 99.5197C127.944 102.863 128.544 105.523 129.503 108.694C130.431 111.763 132.33 114.261 133.946 116.985C134.783 118.398 135.553 119.857 136.736 121.017C137.938 122.196 138.138 122.648 138.029 124.387C137.848 127.25 136.485 129.203 133.907 130.389C131.864 131.521 127.647 132.441 125.422 131.495C123.083 130.5 120.805 127.925 119.29 125.943C115.849 121.44 114.104 114.658 114.313 109.06C114.422 106.144 114.576 103.16 114.855 100.255C115.058 98.1384 114.984 95.0953 118.063 96.049C119.058 96.357 118.662 96.1274 118.742 97.2827ZM130.557 136.382C130.854 135.778 133.467 135.17 133.922 135.525C134.612 136.062 134.64 139.201 134.883 140.094C135.267 141.511 135.773 142.912 136.382 144.249C137.661 147.053 139.496 149.949 141.673 152.133C143.929 154.396 146.521 155.963 149.26 157.585C150.042 158.049 150.8 158.607 151.604 159.028C151.941 159.205 152.567 159.287 152.833 159.553C153.49 160.21 153.186 161.559 153.178 162.415C153.147 165.843 153.158 169.16 153.612 172.542C150.929 170.465 148.504 167.828 146.115 165.406C143.609 162.866 140.383 161.19 138.008 158.5C135.846 156.054 134.145 153.202 132.557 150.372C131.862 149.132 130.537 147.551 130.489 146.102C130.437 144.539 131.15 142.885 131.158 141.266C131.163 140.121 130.116 137.282 130.557 136.382ZM162.784 171.379C162.621 172.415 162.751 174.634 161.311 174.857C160.32 175.011 159.71 174.07 159.346 173.282C158.249 170.9 158.612 167.722 158.202 165.163C157.718 162.142 157.706 159.164 157.332 156.138C157.002 153.47 155.902 150.105 156.502 147.476C157.045 147.463 158.515 152.607 158.832 153.423C159.484 155.102 160.236 156.515 160.8 158.257C161.548 160.563 162.197 162.765 162.541 165.178C162.783 166.874 163.692 169.887 162.784 171.379ZM170.75 160.006C169.406 162.092 167.955 164.266 166.061 166.006C166.061 165.033 165.334 161.869 165.827 161.117C166.414 160.22 169.749 160.179 170.75 160.006ZM118.619 77.8427C119.761 77.3245 121.035 77.1613 122.187 76.6256C123.287 76.1137 124.105 75.8047 125.327 75.7041C129.574 75.3557 133.899 76.4428 137.828 77.6317C139.99 78.286 141.697 79.7197 143.523 80.9617C145.413 82.2463 146.449 83.365 147.272 85.5387C149.042 90.2149 150.132 94.6361 150.836 99.5671C151.551 104.57 150.39 109.627 150.462 114.64C150.533 119.586 150.887 124.735 152.458 129.444C153.673 133.085 155.826 138.947 160.363 139.31C164.67 139.654 168.314 135.213 170.095 131.879C174.803 123.065 176.572 112.988 176.827 103.095C177.492 99.7847 177.872 96.2153 179.024 93.0404C180.305 95.0439 181.35 97.1941 182.528 99.2592C183.82 101.526 183.737 103.375 183.625 105.95C183.538 107.953 182.832 109.867 182.575 111.861C182.278 114.163 181.734 116.407 181.603 118.732C181.449 121.474 181.602 124.244 181.371 126.979C181.177 129.279 180.669 131.589 180.301 133.868C179.943 136.082 179.899 138.262 179.952 140.469C180.003 142.605 180.741 144.68 182.552 145.824C179.861 149.144 176.507 154.033 172 154.82C170.489 155.083 169.078 155.289 167.548 155.401C166.303 155.492 164.85 156.19 163.777 155.414C161.93 154.079 161.566 151.103 160.868 149.157C160.385 147.811 155.598 136.787 153.079 139.91C152.63 140.467 152.736 142.509 152.667 143.293C152.568 144.423 152.614 145.572 152.578 146.705C152.532 148.149 152.404 149.612 152.504 151.055C152.565 151.925 153.087 152.864 152.102 153.074C151.19 153.268 149.267 151.456 148.603 150.987C147.713 150.357 146.752 149.885 145.85 149.278C143.995 148.031 142.524 146.461 141.204 144.682C139.875 142.891 138.692 140.882 137.793 138.838C137.337 137.8 136.963 136.737 136.582 135.672C136.59 135.695 136.016 134.352 136.048 134.258C136.149 133.957 137.364 133.458 137.663 133.222C141.09 130.517 141.777 123.791 140.866 119.857C140.314 117.476 138.49 115.385 137.195 113.358C135.943 111.4 134.619 109.483 133.581 107.399C132.436 105.104 131.552 102.694 130.525 100.347C130.029 99.2145 129.435 98.6316 130.175 97.5942C130.628 96.9582 131.567 96.6977 131.971 96.0016C132.378 95.3013 132.42 93.9499 131.688 93.4492C130.888 92.9012 129.724 93.6665 128.991 93.965C128.012 94.363 127.035 94.556 126.036 94.8618C124.902 95.2099 123.881 95.9787 122.677 95.9787C123.325 93.7495 126.121 93.9611 127.029 91.8879C127.648 90.4712 127.568 87.8348 125.635 87.6013C124.538 87.4685 123.672 88.3059 122.856 88.8677C121.782 89.6067 120.971 89.7445 119.713 89.9762C119.25 90.0616 118.498 90.4958 118.058 90.3481C117.345 90.109 117.757 90.2567 118.13 89.6706C118.685 88.7991 119.998 87.9483 120.791 87.3124C122.575 85.8826 125.048 84.8518 126.593 83.1892C127.614 82.0899 128.116 78.3939 126.175 77.804C125.397 77.5671 124.131 78.3391 123.368 78.5753C122.079 78.974 120.767 79.2915 119.495 79.7464C117.236 80.5543 115.067 81.514 112.776 82.239C114.081 80.3803 116.561 78.7775 118.619 77.8427ZM195.003 77.2981C195.003 78.5753 195.49 81.0032 194.94 82.1644C194.444 83.21 191.433 83.7929 190.369 84.1922C186.925 85.486 183.509 86.9267 179.989 87.9979C183.617 82.6243 189.009 79.5045 195.003 77.2981ZM194.495 59.9464C193.603 61.2282 192.051 62.966 190.236 62.3602C188.28 61.7074 186.747 58.7113 187.746 56.8101C188.601 55.1862 191.038 54.1671 192.542 55.4471C192.871 55.7262 193.085 56.4403 193.399 56.6586C193.601 56.7985 193.92 56.4241 194.167 56.5739C194.895 57.0158 195.175 58.0947 196.225 58.0044C196.711 57.9629 198.268 56.6934 198.587 56.3689C199.439 55.5002 199.142 54.61 199.277 53.4685C199.463 51.8956 200.548 51.6544 201.797 50.843C202.986 50.0699 203.941 48.9175 205.117 48.1733C206.521 47.2842 205.716 48.4113 206.999 48.5227C207.23 48.5431 207.747 47.7742 208.149 47.7869C208.669 47.8038 208.895 48.1501 209.192 48.528C209.839 49.3489 209.363 49.6066 210.489 49.7978C211.302 49.936 211.806 49.3454 212.501 49.357C213.069 48.7133 213.911 47.3692 214.927 47.7662C215.615 48.0347 215.862 49.4762 216.009 50.078C216.568 52.3597 216.526 55.0414 216.546 57.3814C215.239 56.4638 215.069 55.8475 214.661 54.3681C214.395 53.407 213.755 51.9944 213.055 53.4383C212.857 53.8482 213.027 54.4764 212.896 54.9268C212.743 55.4488 212.379 55.7062 212.322 56.2757C212.185 57.6577 213.317 58.1313 214.293 58.8042C213.382 59.7864 210.76 59.045 211.459 61.1424C212.198 63.3583 215.038 62.1313 216.455 61.5752C217.663 66.1532 212.297 68.3589 209.027 69.6108C207.107 70.346 206.356 70.7555 206.092 72.9971C205.866 74.9184 206.125 76.8857 206.829 78.6805C207.112 79.3997 207.382 80.3827 207.767 81.0486C208.094 81.6125 208.744 81.6519 208.964 81.9665C209.772 83.127 209.19 85.6453 209.095 87.0381C208.837 90.8466 207.65 94.3151 207.141 98.0319C206.879 99.9328 206.096 101.712 205.76 103.591C205.452 105.315 205.33 106.942 203.878 108.175C200.959 110.652 198.701 106.994 197.69 104.59C196.249 101.165 196.105 96.6643 196.343 93.0126C196.602 89.0428 198.418 85.2294 198.514 81.289C198.616 77.0752 197.98 73.0748 196.926 69.0005C196.465 67.2199 195.794 65.6259 195.225 63.9043C194.761 62.4966 195.53 61.2254 194.495 59.9464ZM202.083 18.2598C202.083 18.263 202.083 18.2659 202.084 18.2691C202.065 18.2483 202.047 18.2286 202.026 18.2044C202.048 18.2295 202.066 18.2467 202.083 18.2598ZM202.17 17.8651C202.126 17.5677 202.031 17.1934 201.966 17.025C202.124 17.1223 202.303 17.2039 202.309 17.3059C202.326 17.5986 202.242 17.7363 202.17 17.8651ZM206.503 18.6166C206.473 18.6338 206.443 18.6526 206.413 18.6692C206.34 18.6692 206.28 18.6539 206.226 18.63C206.247 18.6344 206.269 18.6379 206.295 18.6399C206.366 18.645 206.435 18.6344 206.503 18.6166ZM208.768 17.8702C208.363 17.867 207.935 17.8291 207.461 18.0347C207.536 17.9895 207.612 17.949 207.688 17.9219C207.9 17.8466 208.349 17.8549 208.768 17.8702ZM185.793 129.227C185.881 127.32 185.88 126.748 187.377 125.519C188.626 124.494 189.834 123.419 191.096 122.41C193.889 120.174 196.874 117.807 200.05 116.138C201.83 115.203 206.686 113.318 205.458 117.01C204.3 120.494 202.066 123.588 200.142 126.683C198.181 129.838 196.219 132.995 194.182 136.102C193.295 137.453 192.36 138.778 191.512 140.153C190.678 141.507 190.592 142.42 188.881 141.859C187.637 141.452 186.233 140.956 185.059 140.426C184.029 139.96 184.091 139.676 184.063 138.465C184.7 135.335 185.646 132.465 185.793 129.227ZM193.765 91.0836C193.332 92.8277 190.226 93.0351 188.55 93.3733C188.262 93.4313 186.802 93.9035 186.53 93.7417C185.992 93.4218 186.256 92.4976 186.028 92.05C184.773 89.6003 184.755 92.732 184.397 93.4696C183.419 95.4904 181.921 91.445 181.371 90.4543C180.949 89.6921 180.495 89.3043 180.933 88.6645C181.298 88.1319 183.325 87.7659 183.948 87.5363C186.218 86.6975 188.483 85.8432 190.748 84.9882C191.723 84.6201 194.725 82.6921 194.692 84.5449C194.368 86.6771 194.283 88.9978 193.765 91.0836ZM192.067 111.907C191.111 112.204 188.517 113.395 187.551 112.833C186.735 112.359 187.298 110.698 187.39 109.833C187.563 108.204 187.538 106.43 187.445 104.796C187.309 102.381 187.108 102.19 189.491 101.541C190.411 101.289 193.222 99.9299 193.906 100.697C194.226 101.055 194.09 102.193 194.161 102.627C194.313 103.566 194.575 104.484 194.918 105.37C195.511 106.903 196.376 108.279 197.281 109.642C195.658 110.641 193.883 111.343 192.067 111.907ZM186.673 94.833C187.085 94.2399 189.138 94.1555 189.817 94.0121C191.017 93.7583 192.217 93.5072 193.417 93.2538C193.481 94.7152 194.308 98.5321 193.256 99.5865C192.665 100.18 190.688 100.332 189.851 100.539C188.939 100.763 188.026 100.983 187.112 101.204C187.009 99.7949 186.923 98.3855 186.773 96.9807C186.718 96.4642 186.337 95.3153 186.673 94.833ZM186.91 114.127C187.541 113.401 189.249 113.422 190.199 113.2C191.711 112.846 193.145 112.363 194.577 111.765C195.378 111.43 196.956 110.284 197.842 110.574C198.09 110.655 198.609 111.678 198.798 111.869C199.121 112.198 199.538 112.42 199.912 112.68C200.943 113.394 201.569 113.616 202.785 113.858C196.425 116.466 191.316 121.106 186.055 125.386C185.682 125.073 185.889 122.275 185.931 121.633C186.006 120.442 186.057 119.235 186.147 118.04C186.22 117.058 186.239 114.899 186.91 114.127ZM206.222 139.499C206.03 140.585 206.001 142.075 205.536 143.078C205.109 143.996 205.161 143.932 204.027 143.96C202.594 143.994 200.95 144.235 199.562 143.798C200.801 141.061 201.832 138.087 203.528 135.59C204.061 134.806 205.089 132.799 206.203 132.918C207.321 133.038 207.076 134.159 206.987 134.971C206.821 136.485 206.487 137.999 206.222 139.499ZM211.806 96.8063C212.666 90.9022 212.593 85.1299 212.593 79.1842C213.967 79.366 215.48 79.2514 216.804 79.6399C216.377 81.0032 215.144 82.233 216.365 83.5274C217.604 84.8423 220.493 85.4185 222.168 85.9026C224.13 86.4697 226.13 87.1629 228.146 87.4997C229.052 87.6509 230.04 87.7979 230.954 87.6221C232.401 87.3444 232.529 86.9601 233.48 88.4511C233.485 88.4592 233.493 88.4711 233.499 88.4799C233.224 88.3221 232.352 88.417 232.584 88.4237C232.618 88.5439 232.669 88.6634 232.699 88.7749C232.442 88.5636 231.874 88.3857 231.795 88.3716C230.849 88.2053 229.648 88.63 228.736 88.8403C226.692 89.3128 224.664 89.8271 222.684 90.5264C221.018 91.1149 219.367 91.7737 217.778 92.5471C216.55 93.1437 213.716 94.1949 213.329 95.6571C212.587 98.4608 219.993 100.591 221.799 101.54C223.505 102.436 222.967 103.765 222.986 105.546C223.007 107.48 223.182 109.396 223.048 111.325C222.944 112.821 222.829 112.589 221.338 112.562C220.221 112.542 219.104 112.497 217.988 112.564C216.413 112.657 214.797 112.876 213.319 113.448C211.108 114.304 206.863 118.381 211.093 119.624C212.836 120.135 215.082 119.948 216.867 119.825C218.416 119.718 220.842 119.013 222.337 119.545C223.116 119.325 223.397 119.608 223.18 120.395C223.216 120.934 223.252 121.474 223.288 122.013C223.36 123.099 223.432 124.184 223.504 125.27C223.652 127.491 223.799 129.712 223.947 131.933C222.648 130.093 220.862 126.463 218.096 126.878C215.722 127.234 214.318 130.916 213.553 132.816C212.932 134.36 212.53 135.978 212.11 137.585C211.706 139.13 211.559 141.315 210.82 142.715C210.093 144.094 209.082 143.631 207.593 143.773C205.732 143.95 206.482 142.908 206.778 141.326C207.229 138.916 208.824 134.759 207.286 132.513C205.322 129.646 202.548 134.958 201.794 136.393C201.089 137.734 200.487 139.124 199.947 140.539C199.599 141.453 199.317 143.425 198.417 143.925C197.315 144.538 195.568 143.558 194.555 143.238C193.366 142.862 192.067 142.705 190.846 142.458C194.322 137.017 197.937 131.658 201.309 126.153C202.995 123.401 205.121 120.511 206.047 117.397C206.223 116.808 206.439 116.244 206.366 115.617C206.305 115.082 205.5 114.24 205.551 113.868C205.627 113.318 206.732 112.858 207.249 112.28C209.045 110.269 209.496 107.876 210.054 105.319C210.66 102.537 211.396 99.6167 211.806 96.8063ZM218.591 79.9324C221.239 79.3621 224.247 80.883 226.46 82.111C227.921 82.921 231.819 84.6145 231.969 86.5983C231.928 86.0605 228.344 86.3962 227.635 86.4134C224.607 85.7578 221.377 84.8736 218.551 83.5668C217.522 83.0908 216.313 82.6246 216.688 81.403C216.934 80.6003 217.841 80.0941 218.591 79.9324ZM215.52 118.964C213.847 118.868 207.771 118.934 210.829 115.9C212.743 114 216.268 113.588 218.815 113.578C219.727 113.574 220.626 113.646 221.532 113.739C221.78 113.769 222.029 113.798 222.278 113.827C223.037 113.676 223.274 113.991 222.989 114.77C223.125 115.226 223.343 117.93 222.943 118.31C222.411 118.814 220.719 118.592 220.096 118.64C218.565 118.76 217.056 118.973 215.52 118.964ZM224.407 141.946C220.004 142.602 215.609 143.438 211.144 143.508C211.811 140.254 212.587 137.007 213.8 133.907C214.576 131.927 215.983 127.65 218.697 127.86C220.863 128.028 223.391 131.739 223.994 133.635C224.781 136.106 224.407 139.376 224.407 141.946ZM235.713 92.4821C235.626 92.9331 233.65 93.7442 233.227 93.9896C230.179 95.7608 227.464 98.3862 225.64 101.37C225.437 100.218 225.469 98.0343 224.504 97.2162C222.805 95.7762 223.154 99.0025 222.951 99.988C222.761 100.912 222.998 100.762 222.201 100.845C221.494 100.917 219.689 99.5935 219.037 99.2599C217.234 98.3377 215.506 97.334 213.774 96.287C215.209 93.9165 219.44 92.828 221.85 91.8799C225.313 90.5172 228.727 89.8197 232.392 89.2555C233.005 89.5743 233.085 88.8571 233.542 88.6965C233.568 88.6592 233.576 88.6279 233.578 88.5991C234.116 89.3989 235.844 91.8106 235.713 92.4821ZM240.197 124.429C241.902 132.266 242.327 140.419 244.481 148.162C246.53 155.521 248.349 162.848 250.715 170.109C252.078 174.29 253.344 178.514 255.165 182.53C256.436 185.33 257.445 191.304 260.54 192.615C262.566 193.473 263.465 192.713 263.248 190.658C263.061 188.87 262.133 187.747 261.368 186.203C261.102 185.665 260.234 184.147 260.328 183.577C260.446 182.867 260.626 182.943 261.366 182.592C262.937 181.848 264.503 181.343 266.175 180.912C265.501 181.958 264.153 183.455 264.045 184.735C263.955 185.791 264.714 187.728 265.763 188.133C266.755 188.516 267.921 187.709 268.771 187.216C269.753 186.646 270.69 186.487 271.772 186.082C270.393 188.069 268.134 189.652 269.101 192.385C270.133 195.3 273.334 192.915 275.381 192.586C274.797 194.845 272.203 197.42 270.337 198.677C269.084 199.521 267.725 200.282 266.381 200.965C265.86 201.229 265.177 201.391 264.698 201.706C264.517 201.825 264.211 202.334 264.046 202.414C261.724 203.535 258.557 203.821 256.031 204.36C253.247 204.954 250.851 205.099 247.986 204.961C245.615 204.847 242.989 203.391 241.008 202.168C239.502 201.238 239.282 200.102 238.813 198.461C238.036 195.741 237.34 193.003 236.598 190.273C235.959 187.92 235.661 185.66 235.228 183.272C234.31 178.212 233.887 173.072 232.902 168.021C231.924 163.004 231.597 157.921 231.327 152.793C231.196 150.323 230.794 147.803 230.672 145.381C230.572 143.411 230.606 141.428 230.617 139.402C230.625 137.978 230.12 136.555 230.154 135.126C230.185 133.862 230.301 132.724 230.167 131.447C229.883 128.727 229.66 126.04 229.446 123.316C229.029 118.006 227.802 112.767 227.312 107.48C227.101 105.193 229.61 103 231.31 101.669C233.122 100.25 234.576 98.2569 236.57 97.1399C237.309 106.31 238.238 115.432 240.197 124.429ZM210.167 222.468C208.201 223.344 206.236 224.222 204.269 225.097C202.823 225.74 200.926 227.062 199.337 226.943C200.466 225.413 201.178 223.663 202.383 222.176C203.586 220.692 204.578 219.116 205.666 217.547C207.096 219.291 208.557 220.889 210.167 222.468ZM210.585 214.772C213.56 213.204 217.786 210.222 221.272 210.785C223.783 211.19 226.627 213.028 228.143 215.053C228.855 216.003 229.566 216.888 230.38 217.819C231.126 218.672 231.508 218.561 230.856 219.451C230.355 220.135 229.172 220.598 228.403 220.863C228.403 219.366 228.868 217.865 227.07 218.013C226.36 218.071 225.533 218.241 224.825 218.356C224.216 218.456 223.862 218.72 223.343 218.843C222.789 218.973 222.126 218.82 221.552 218.865C220.563 218.942 219.771 219.339 218.833 219.546C216.894 219.976 215.258 220.57 213.37 221.204C212.506 219.884 211.781 218.296 210.607 217.217C209.295 216.01 208.736 215.748 210.585 214.772ZM185.07 17.0455C185.355 17.0155 185.681 16.8379 185.902 16.4677C185.516 17.1156 185.288 17.1449 185.07 17.0455ZM176.154 18.0772C176.5 18.1399 176.841 18.2168 177.127 18.351C177.409 18.483 177.561 18.6335 177.711 18.7655C177.641 18.7349 177.565 18.702 177.48 18.6663C177.108 18.5111 176.632 18.2308 176.154 18.0772ZM170.208 67.2044C170.185 67.1728 170.163 67.1436 170.14 67.1151C170.163 67.1436 170.185 67.1728 170.208 67.2044H170.208ZM169.052 67.3721C168.944 67.3324 168.851 67.2666 168.778 67.171C168.851 67.2666 168.944 67.3324 169.052 67.3721C169.124 67.3985 169.204 67.4132 169.29 67.4174C169.204 67.4132 169.124 67.3985 169.052 67.3721ZM168.59 66.426C168.589 66.5635 168.6 66.6841 168.621 66.7903C168.6 66.6841 168.589 66.5635 168.59 66.426ZM169.99 66.9379C169.961 66.9084 169.934 66.881 169.906 66.8553C169.934 66.881 169.961 66.9087 169.99 66.9379ZM169.751 66.7305C169.707 66.7006 169.663 66.6735 169.617 66.6507C169.663 66.6735 169.707 66.7006 169.751 66.7305ZM219.195 19.3677C219.259 19.3862 219.314 19.3942 219.366 19.397C219.296 19.4041 219.24 19.3935 219.195 19.3677ZM220.725 20.3927C220.538 20.2202 220.428 20.0512 220.372 19.882C220.401 19.8998 220.432 19.9161 220.468 19.9301C220.523 19.8753 220.578 19.8204 220.634 19.7653C220.557 19.9081 220.531 20.0458 220.59 20.1695C220.875 20.7664 221.224 19.859 221.654 20.3079C221.331 20.2684 220.938 20.3927 220.725 20.3927C220.228 21.0743 219.731 21.7563 219.234 22.4379C219.907 22.7736 220.118 22.3592 220.493 22.971C220.511 23.0006 220.528 23.0733 220.542 23.1693C220.386 22.7233 219.978 22.809 219.234 22.4379C219.731 21.7563 220.228 21.0743 220.725 20.3927ZM222.012 21.8934C222.058 21.8589 222.086 21.8115 222.103 21.7486C222.115 21.7065 222.122 21.6578 222.127 21.6013C222.122 21.6578 222.115 21.7065 222.103 21.7486C222.086 21.8115 222.058 21.8589 222.012 21.8934C221.981 21.9163 221.942 21.9335 221.893 21.9453C221.942 21.9335 221.981 21.9163 222.012 21.8934ZM222.153 21.1687C222.146 21.2577 222.143 21.3377 222.139 21.4094C222.143 21.3377 222.146 21.2577 222.153 21.1687ZM221.418 22.9844C221.439 23.0239 221.463 23.0596 221.488 23.0928C221.463 23.0587 221.439 23.0239 221.418 22.9844ZM220.671 25.6669C219.96 25.2865 220.577 24.8077 220.607 24.2233C220.609 24.1713 220.61 24.1273 220.611 24.0795C220.616 24.2207 220.617 24.3365 220.614 24.3932C220.566 25.2189 219.98 25.4488 221.046 25.6991C221.119 25.7163 221.214 25.7252 221.321 25.7294C221.048 25.7491 220.811 25.7421 220.671 25.6669ZM231.683 31.8035C231.639 31.4659 233.218 30.729 233.421 30.6385C233.172 30.7498 231.641 31.4834 231.683 31.8035ZM233.479 28.8136C233.468 28.8092 233.457 28.8079 233.446 28.8031C233.448 28.7782 233.446 28.755 233.446 28.7307C233.453 28.7613 233.463 28.7897 233.479 28.8136ZM234.32 31.5405C234.328 31.5038 234.345 31.4059 234.364 31.2892C234.392 31.4333 234.423 31.5685 234.452 31.6865C234.417 31.6405 234.376 31.5924 234.32 31.5405ZM233.093 31.5197C233.092 30.9474 233.272 31.0696 233.383 31.0868C233.281 31.2401 233.092 31.2688 233.093 31.5197ZM231.427 32.7765C231.593 32.744 231.732 32.8393 231.861 32.9493C231.581 32.875 231.35 32.7912 231.427 32.7765ZM230.072 36.0454C230.046 36.0542 230.022 36.0598 229.998 36.0669C230.022 36.0598 230.046 36.0542 230.072 36.0454ZM230.208 35.9962C230.19 36.0036 230.174 36.0085 230.156 36.0152C230.174 36.0085 230.19 36.0036 230.208 35.9962ZM229.952 36.0802C229.918 36.0887 229.886 36.0946 229.855 36.0988C229.886 36.0946 229.918 36.0887 229.952 36.0802ZM230.994 55.8619C231.064 55.7442 231.215 55.7051 231.385 55.6865C231.171 55.7684 231.005 55.9438 230.966 56.1984C230.924 56.1042 230.913 55.9976 230.994 55.8619ZM232.236 52.2029C232.224 52.1994 232.212 52.1948 232.201 52.1937C231.853 52.1667 231.702 52.3917 231.664 52.7358C231.687 52.4356 231.788 52.1909 232.048 52.1111C232.034 52.084 232.022 52.0587 232.01 52.0324C232.076 52.0925 232.153 52.1494 232.236 52.2029ZM231.824 54.0556C231.816 54.0148 231.808 53.9702 231.799 53.9238C231.838 54.0876 231.882 54.2504 231.927 54.4068C231.882 54.281 231.843 54.1607 231.824 54.0556ZM232.127 48.3589C232.098 48.3719 232.066 48.3835 232.033 48.3933C232.066 48.3835 232.098 48.3722 232.127 48.3589ZM232.212 48.3086C232.192 48.3234 232.169 48.336 232.146 48.348C232.169 48.336 232.191 48.323 232.212 48.3086ZM232.016 48.399C231.976 48.4095 231.932 48.4187 231.884 48.4246C231.932 48.4187 231.976 48.4099 232.016 48.399ZM232.374 44.2403C232.378 44.394 232.379 44.5472 232.383 44.6924C232.359 44.5497 232.356 44.4091 232.374 44.2403ZM301.294 249.345C300.344 248.492 297.163 248.435 295.9 248.195C298.633 245.58 300.687 238.97 295.466 238.121C294.31 237.933 293.983 238.378 293.719 237.07C293.556 236.267 293.887 235.528 293.489 234.729C292.544 232.832 288.954 233.044 287.16 232.771C287.588 231.265 288.64 228.573 287.056 227.35C285.807 226.386 283.207 227.673 281.879 228.086C278.293 229.203 274.65 230.477 271.625 232.725C270.269 230.895 268.851 229.089 267.714 227.11C266.629 225.222 265.957 223.135 264.938 221.213C263.915 219.285 262.83 217.013 261.402 215.356C260.193 213.954 258.535 213.815 256.939 213.145C252.893 211.447 249.386 211.545 245.158 212.173C240.931 212.8 237.267 215.272 233.687 217.429C232.282 212.691 229.032 207.543 223.994 206.082C221.733 205.426 219.355 206.059 217.287 207.09C214.726 208.368 212.712 210.54 210.207 211.75C213.063 206.861 216.669 202.261 219.808 197.644C221.529 195.111 223.704 192.851 225.386 190.27C227.1 187.639 228.363 184.715 229.607 181.843C230.657 184.523 230.835 187.342 231.8 190.032C232.685 192.5 233.292 195.033 234.299 197.461C235.35 199.995 236.279 202.496 237.7 204.855C238.511 206.2 240.509 210.391 241.982 207.702C245.26 209.916 248.423 211.253 252.522 211.156C254.399 211.112 256.489 211.053 258.285 210.632C260.11 210.206 261.853 209.631 263.666 209.222C265.1 208.899 266.411 208.023 267.716 207.374C269.216 206.628 270.703 205.287 271.862 204.111C273.297 202.654 274.779 201.252 276.222 199.805C277.649 198.372 277.546 196.911 278.309 195.131C279.106 193.274 279.448 191.632 278.394 189.758C277.622 188.385 276.255 188.574 275.936 187.184C275.632 185.865 275.927 184.622 275.099 183.411C274.47 182.493 272.207 181.879 272.2 180.942C272.193 180.167 272.998 179.481 272.966 178.552C272.938 177.722 272.532 176.387 272.085 175.685C271.247 174.364 269.971 174.319 268.531 174.723C265.052 175.698 261.642 178.205 259.25 180.838C255.97 171.855 253.387 162.674 250.988 153.486C249.928 149.427 249.098 145.315 248.424 141.177C247.757 137.079 246.746 132.952 246.296 128.833C246.025 126.363 245.265 124.051 244.909 121.611C244.615 119.591 244.419 117.554 244.13 115.533C243.489 111.054 242.6 106.644 241.908 102.176C241.526 99.7074 240.663 97.5471 239.999 95.1691C239.429 93.13 239.09 91.3866 238.138 89.4601C236.322 85.7862 234.454 81.2859 230.926 78.9512C227.788 76.8745 224.744 75.1392 220.92 74.7141C218.676 74.4645 216.869 74.9915 214.675 75.2337C212.733 75.4482 211.069 76.5215 209.175 76.9082C209.175 75.1079 208.999 75.0594 210.642 74.4188C211.589 74.05 212.512 73.6447 213.476 73.324C214.492 72.9858 215.261 72.6561 216.128 72.0349C217.15 71.3015 216.505 71.5346 217.73 71.7877C219.662 72.1878 219.093 71.7237 220.363 70.7615C221.102 70.2015 221.857 70.5432 222.722 70.655C223.529 70.7594 224.857 71.1162 225.473 70.3895C225.942 69.8369 225.431 68.8887 225.776 68.2883C226.321 67.3401 227.883 67.3833 228.717 66.7463C229.629 66.0499 229.712 65.2645 229.514 64.1933C229.377 63.4518 228.208 61.8044 228.274 61.1667C228.318 60.7416 228.542 60.6172 228.831 60.5824C231.115 60.6977 231.005 60.3535 230.448 58.3292C230.415 58.6291 230.395 58.884 230.373 59.1037C230.367 58.7894 230.369 58.4958 230.448 58.3292C230.507 58.2037 230.721 58.1228 230.914 58.0216C230.863 58.0722 230.81 58.1239 230.747 58.1819C230.845 58.6122 230.873 59.7365 231.286 60.0424C231.582 60.2614 232.619 60.2389 232.828 59.8729C233.266 59.1086 231.761 58.6748 231.702 58.1074C233.43 57.9629 232.841 57.1209 231.937 56.2613C231.902 56.0254 232.038 55.9136 232.349 55.9263C232.194 55.7653 232.003 55.6735 231.813 55.644C231.948 55.6215 232.065 55.5821 232.126 55.4865C232.18 55.4024 232.184 55.2861 232.164 55.156C232.198 55.2562 232.227 55.3423 232.248 55.4088C233.739 56.0103 232.973 52.8178 232.354 52.2735C232.402 51.3876 232.45 50.502 232.496 49.6164C232.071 49.897 231.748 50.3343 231.637 50.791C231.652 50.3695 231.898 50.0116 232.496 49.6164C231.538 49.1945 231.444 49.1432 232.473 49.0532C233.326 49.8309 233.207 49.1854 233.735 48.7104C233.703 48.7386 234.534 47.8351 234.479 47.9732C234.874 46.9962 234.438 44.935 232.847 45.6062C233.711 46.3799 232.844 46.5223 232.542 47.1875C232.532 47.2096 232.524 47.2332 232.515 47.2564C232.532 47.1769 232.553 47.0999 232.586 47.0293C233.119 45.8835 233.245 46.7631 232.658 45.4599C232.658 45.4592 232.657 45.4581 232.657 45.4567C232.812 45.5351 233.055 45.5186 233.44 45.3565C233.92 44.7701 234.065 45.0099 234.323 44.2544C234.548 43.5938 234.444 43.1428 233.994 42.897C234.045 42.9104 234.096 42.9255 234.148 42.9385C234.347 42.4301 234.071 41.946 233.61 41.7122C233.424 42.0163 233.239 42.3208 233.054 42.6253C233.137 42.6523 233.222 42.6766 233.306 42.7022C233.305 42.7022 233.304 42.7022 233.304 42.7019C232.714 42.6337 232.475 42.7395 232.386 43.0116C232.357 42.8896 232.349 42.7694 232.417 42.6604C232.488 42.544 232.998 42.7167 233.054 42.6253C233.967 41.1276 233.002 39.8806 231.531 39.1177C230.973 38.828 229.872 38.8182 229.674 38.14C229.535 37.6608 230.229 36.5014 230.362 35.9329C231.389 35.4622 229.494 35.1869 229.481 35.1848C229.424 35.8552 229.461 36.1523 229.848 36.1003C229.459 36.153 229.424 35.8531 229.481 35.1848C230.038 35.2702 231.681 35.1169 232.487 34.5692C233.82 34.6071 234.507 34.8383 235.316 33.6819C234.525 33.3539 233.594 33.5305 232.885 33.0268C232.918 33.1782 232.945 33.3156 232.962 33.4425C232.9 33.2551 232.766 33.0937 232.587 32.9407C232.703 33.0401 232.643 33.072 232.506 33.0676C232.532 33.0322 232.559 32.9914 232.587 32.9407C232.635 32.3796 233.048 32.6082 233.465 32.6432C233.454 32.4628 233.383 32.311 233.306 32.1605C233.382 32.305 233.454 32.4529 233.465 32.6432C233.73 32.4749 233.995 32.3066 234.259 32.1379C234.404 32.0961 234.49 32.0378 234.523 31.9645C234.524 31.9657 234.524 31.9674 234.525 31.9686C235.789 32.3461 235.405 29.6661 234.822 29.6798C234.666 29.6837 234.553 29.7411 234.47 29.8319C234.488 29.5848 234.53 29.3234 234.631 28.9574H234.63H234.631C234.691 28.7999 234.75 28.6424 234.809 28.4849C234.49 28.5053 233.458 27.8891 233.44 28.6242C233.42 28.4916 233.368 28.3679 233.277 28.2553C233.37 27.4421 232.891 27.5112 232.149 27.2839C231.874 27.1994 231.57 26.6718 231.259 26.8934C230.793 27.2262 231.074 27.5396 231.373 27.7768C231.329 28.0532 231.197 28.2742 230.976 28.4393C230.943 28.4077 230.91 28.3835 230.878 28.359C231.085 28.2382 231.259 28.0459 231.373 27.7768C230.419 27.0222 230.017 27.516 229.283 28.1231C229.575 28.3663 229.914 28.4973 230.238 28.5107C230.222 28.5464 230.206 28.5825 230.191 28.6252C229.823 28.5793 229.52 28.4119 229.283 28.1231C230.062 27.4781 229.992 27.0827 229.044 26.7002C228.724 26.571 228.521 26.8586 228.125 26.7065C227.928 26.631 227.786 26.2879 227.594 26.1744C226.16 25.3254 224.437 25.8088 222.909 25.6076C223.101 25.5831 223.272 25.5591 223.402 25.5419C223.25 25.0152 222.84 24.7873 222.409 24.6269C222.41 24.3269 222.41 24.0266 222.41 23.7266C222.349 23.7129 222.29 23.7065 222.233 23.7049C222.333 23.6258 222.392 23.5184 222.378 23.3354C222.01 23.4686 221.697 23.3705 221.495 23.1036C221.896 23.616 222.678 23.3478 222.916 22.6907C223.166 22.0021 222.63 21.5395 222.164 21.0284C222.176 20.5375 221.967 20.3608 221.697 20.3137C222.184 19.3585 222.293 19.8322 221.771 18.6376C221.728 17.8326 221.045 18.125 220.584 18.6421C220.632 18.5235 220.682 18.4017 220.73 18.2748C220.367 18.2503 220.005 18.2257 219.643 18.2005C219.735 18.4945 219.938 19.018 219.671 19.2676C219.849 19.0122 219.722 18.4543 219.643 18.2005C219.199 17.9531 218.755 17.7057 218.311 17.4577C218.349 17.537 218.451 17.8358 218.577 18.174C218.236 17.6987 217.958 17.4041 217.492 16.9147C217.265 16.6759 216.376 15.5298 216.13 15.4584C214.623 15.0216 213.483 17.9684 211.645 17.5651C210.561 17.3273 211.067 17.0467 210.043 17.2457C209.482 16.5172 205.822 17.6627 205.682 18.3558C205.75 18.3373 205.803 18.3296 205.845 18.3284C205.433 18.4763 205.074 18.7039 204.674 18.8579C203.672 19.2443 204.268 19.3451 203.131 18.6947C202.743 18.4728 202.6 18.5423 202.449 18.5219C202.938 18.3019 203.174 16.7792 203.181 16.2363C203.199 14.939 203.028 15.1667 203.534 14.2364C203.066 14.229 202.736 14.1892 202.49 14.3004C202.56 14.0798 202.611 13.8633 202.61 13.6539C202.863 12.9678 202.64 12.1596 201.856 11.9686C200.671 11.6795 200.438 13.381 201.297 13.6596C200.476 13.3931 200.805 12.3168 199.686 12.171C200.097 12.15 200.352 12.2275 200.734 12.6974C200.861 12.4424 200.987 12.1876 201.113 11.9326C200.223 11.8395 199.812 11.7639 199.092 12.1822C198.388 12.3078 197.892 12.8176 197.362 13.3153C195.915 14.6706 194.616 15.9933 193.284 17.4637C192.6 16.0581 191.844 15.0347 190.734 16.6077C189.731 18.0274 188.92 19.9897 188.399 21.6406C187.358 21.1626 187.797 21.0068 187.36 20.2327C187.814 20.9867 187.352 21.1601 188.399 21.6406C188.503 21.3112 188.607 20.9816 188.711 20.6522C187.799 19.6132 187.838 18.5809 186.851 17.473C186.741 17.8281 187.056 18.3341 187.111 18.6542C187.172 19.009 186.778 19.2555 186.868 19.6371C187.237 19.5022 187.322 19.5835 187.334 19.7312C187.321 19.5839 187.234 19.5032 186.868 19.6371C186.722 19.0138 187.085 18.6826 186.882 17.9866C186.8 17.7054 186.681 17.4997 186.537 17.3008C187.166 16.2503 185.134 15.5225 184.661 16.1477C184.602 16.2264 184.562 16.2997 184.53 16.3705C183.737 16.0138 183.492 16.7729 183.122 17.3429C183.034 17.5211 182.946 17.6996 182.858 17.8782C182.391 18.2617 181.958 19.0642 181.606 19.5893C180.854 20.7118 180.539 22.3547 179.618 23.2901C179.65 22.6875 179.978 21.3517 178.896 21.8905C179.253 21.7126 179.305 21.4965 179.226 21.2459C179.293 21.2838 179.366 21.3182 179.451 21.3463C179.603 21.3613 179.755 21.3759 179.908 21.3906C179.889 20.5375 179.329 19.9766 178.668 19.523C178.668 19.7458 178.661 19.9751 178.676 20.1947C178.672 20.1867 178.668 20.1791 178.665 20.1711C178.375 19.4764 178.498 19.2717 178.247 19.0588C178.345 19.0824 178.458 19.0993 178.597 19.106C177.789 17.7392 176.714 17.5208 175.229 17.9059C175.33 17.9299 175.436 17.9502 175.544 17.9704C175.376 17.9707 175.212 18.0006 175.06 18.0749C174.483 18.3558 173.63 19.9703 173.229 20.5301C171.82 22.5004 171.164 24.9145 170.426 27.1918C170.219 27.8326 169.905 29.3346 169.104 29.5494C168.172 29.7994 167.186 28.2825 166.366 27.7755C163.744 26.1531 162.439 29.0661 162.036 31.3772C161.433 32.3997 161.572 33.1878 162.441 33.672C162.198 33.3204 162.086 32.9458 162.04 32.5594C162.155 33.2161 162.703 33.4438 162.802 33.725C162.856 33.8793 162.931 34.8153 162.93 35.0034C163.378 35.3377 163.411 35.5849 163.03 35.7448C162.798 35.9037 162.58 36.0816 162.376 36.2781C161.748 36.9405 161.754 37.8591 161.179 38.5035C160.529 39.2323 159.932 38.9103 159.626 40.1084C159.1 42.1608 160.395 45.2602 162.725 45.4564C162.449 46.2646 162.091 47.0845 161.884 47.9131C161.61 49.016 161.629 49.1278 162.149 50.1828C158.273 49.6066 158.576 53.7093 160.785 55.7245C161.308 56.2022 161.882 56.4997 162.557 56.7113C163.046 56.8646 164.521 56.7792 164.873 57.2429C165.613 58.2202 163.96 59.4911 163.814 60.5817C163.799 60.6935 163.793 60.8851 163.798 61.1076C163.187 61.8547 163.217 61.9162 164.089 62.6147C164.567 63.2303 166.043 63.083 166.492 63.6715C167.182 64.5772 165.643 66.0351 166.415 67.0933C167.028 67.9342 167.669 67.4101 168.651 67.7665C169.127 67.9838 169.602 68.2014 170.077 68.4201C170.3 68.2654 170.543 68.1684 170.808 68.129C171.362 68.4085 170.833 68.9003 171.533 69.0649C171.896 69.1795 172.736 69.6151 173.103 69.3894C172.582 69.7096 172.233 70.5013 171.933 71.3718C171.649 71.8373 171.386 72.3495 171.491 72.7341C171.316 73.2671 171.136 73.7533 170.922 74.0919C172.132 74.2761 171.989 75.4155 172.826 76.0409C173.957 77.0091 174.146 76.1105 173.879 75.6384C173.991 75.6957 174.108 75.7702 174.228 75.8553C174.251 75.8711 174.008 76.4463 174.246 76.5806C174.58 76.769 174.58 76.5799 174.927 76.5763C175.254 76.5725 175.728 76.0817 176.128 76.0406C176.34 76.0188 176.969 76.3095 177.099 76.2234C177.461 75.9833 177.433 75.7199 177.292 75.4014L177.454 75.7249C177.844 76.743 178.04 76.5138 178.631 76.222C178.471 76.3007 179.094 75.836 179.222 75.8732C178.931 75.0664 177.777 75.1511 177.066 74.9493C177.516 75.0769 178.248 75.0819 178.662 75.2605C179.356 75.5593 179.137 75.863 179.959 75.9562C180.304 75.9952 181.715 75.612 181.964 75.361C181.987 75.3371 182.004 75.3079 182.017 75.2756C182.145 75.0713 182.273 74.8667 182.4 74.6621C182.922 74.7226 182.357 75.5241 183.175 75.2053C183.787 74.9665 183.489 74.6347 183.294 74.2726C183.231 74.1537 183.159 74.0694 183.084 74.0085C183.928 74.2107 184.933 75.3473 186.086 75.0291C186.736 74.8495 186.772 74.4058 187.249 73.9906C187.886 73.4362 188.083 73.5216 188.855 73.2534C189.322 73.091 189.82 72.7324 190.29 72.6487C191.055 72.5126 190.844 72.597 191.479 72.9197C191.858 73.1124 192.074 73.4745 192.553 73.5445C192.99 73.6085 193.677 73.1054 194.031 73.2435C194.994 73.6201 194.749 74.9722 194.804 75.8637C189.927 74.3116 184.227 76.7922 180.638 80.1989C179.665 81.1224 179.028 82.2175 178.163 83.2219C177.225 84.3118 176.34 84.8068 176.208 86.3593C176.095 87.698 176.698 88.5017 176.222 89.7881C175.765 91.0206 175.266 92.1238 174.932 93.4092C173.334 99.5467 173.285 105.92 172.101 112.143C171.006 117.9 169.442 123.029 166.865 128.307C165.67 130.753 164.668 132.251 162.048 133.283C159.928 134.118 158.376 133.024 157.34 131.12C154.552 125.998 154.155 120.73 154.189 115.017C154.205 112.272 154.518 109.527 154.782 106.798C155.057 103.97 154.851 101.327 154.654 98.5033C154.26 92.8414 152.968 87.9849 151.024 82.6598C150.102 80.1342 149.325 77.6718 147.105 76.0286C145.862 75.1086 144.613 73.9579 143.155 73.162C141.989 72.5253 141.295 71.9501 139.965 71.665C139.09 71.4776 138.293 71.1883 137.449 70.9162C135.456 70.2753 133.151 70.077 131.06 70.084C126.179 70.1006 120.823 71.7438 116.429 73.851C114.241 74.9001 111.866 76.4624 110.425 78.4526C109.83 79.2742 109.425 80.1851 109.021 81.1094C108.538 82.214 108.69 82.4162 107.666 82.3778C107.025 82.3536 106.308 81.7601 105.574 81.7285C104.77 81.694 104.181 81.9742 103.433 82.1817C102.483 82.445 101.59 82.6809 100.745 83.2269C98.6952 84.5501 96.9617 86.6595 95.3954 88.4996C92.5281 91.8679 89.9339 95.6426 87.2515 99.0735C84.6099 102.451 81.4008 105.449 77.2977 106.981C75.7326 107.565 73.9993 107.683 72.4011 108.155C71.6998 108.363 70.8504 108.913 70.1156 108.903C68.9611 108.888 69.0501 108.323 68.6503 107.407C68.175 106.318 67.4877 105.471 66.6285 104.658C62.8176 101.05 58.0781 106.396 58.3724 110.514C58.5443 112.92 60.3478 114.507 60.2842 116.869C60.2244 119.078 60.3563 121.319 61.1441 123.416C62.0286 125.767 64.2038 128.206 66.1219 129.806C67.8987 131.288 70.1244 131.603 72.3628 131.85C73.3887 131.964 74.4532 132.269 75.4453 132.251C76.2954 132.235 77.0685 131.891 77.9361 131.926C79.4085 131.985 80.1974 131.976 81.5769 131.453C82.6 131.066 83.5228 130.851 84.6369 130.876C84.6369 133.224 84.786 135.52 84.9878 137.86C85.0142 138.169 85.2279 138.971 85.0855 139.247C84.9104 139.587 84.7023 139.362 84.4837 139.607C83.9626 140.19 83.5851 140.476 83.1948 141.234C82.1243 143.313 81.7967 145.638 82.214 147.955C82.5409 149.772 83.6093 150.52 83.3569 152.451C83.0598 154.719 82.5075 157.034 82.401 159.317C82.3497 160.405 82.337 161.228 82.1064 162.284C81.9735 162.897 81.5252 164.002 81.5615 164.621C81.584 165.004 81.99 165.174 81.9907 165.524C81.9914 165.83 81.6381 165.79 81.6138 166.052C81.5397 166.842 81.4968 167.559 81.5136 168.354C81.5358 169.429 81.4307 170.498 81.4711 171.573C81.5017 172.392 81.3111 174.331 82.2305 174.012C81.9851 174.59 81.9201 175.148 81.8958 175.703C81.8831 175.649 81.8779 175.594 81.8828 175.538C81.9387 174.897 81.9577 174.655 82.2305 174.012L81.7056 174.194C81.385 175.022 81.7787 175.833 81.867 176.657C81.8642 176.739 81.8613 176.822 81.8561 176.905C81.7822 178.102 81.8726 179.273 81.9619 180.467C82.1658 183.194 82.2621 186.233 82.9994 188.682C83.8076 191.367 83.5492 194.743 83.8607 197.701C84.2175 201.085 84.7958 204.416 85.2265 207.788C85.6111 210.799 85.7967 214.066 86.4566 216.999C86.998 219.4 87.4558 221.739 87.7461 224.264C88.148 227.764 89.4252 230.431 90.8315 233.611C91.4259 234.957 91.4667 234.936 90.3755 235.919C89.9181 236.331 89.5303 236.813 89.0645 237.215C88.1318 238.022 87.113 238.491 85.8881 238.636C82.8728 238.994 79.8265 240.065 78.1327 242.665C76.4954 245.178 77.5565 248.122 78.7817 250.682C77.1645 250.82 72.7917 250.721 73.8148 253.666C74.514 255.681 78.2427 255.006 79.8898 255.028C82.2966 255.06 84.7199 254.942 87.1056 254.909C88.1916 254.894 88.3023 254.782 89.3598 255.196C90.3565 255.586 91.1169 255.629 92.1955 255.558C93.3437 255.482 94.4912 255.651 95.6039 255.486C97.0067 255.278 97.8792 255.103 99.2886 255.352C100.307 255.533 101.123 255.444 102.14 255.31C103.267 255.161 104.333 255.251 105.495 255.219C108.21 255.147 110.904 255.198 113.621 255.228C116.262 255.257 118.904 254.897 121.527 255.015C126.1 255.221 130.755 255.033 135.35 255.14C137.469 255.19 139.106 256.423 141.23 256.296C143.389 256.167 145.578 256.147 147.72 255.846C151.409 255.326 154.963 254.591 158.71 254.4C161.079 254.279 163.161 255.298 165.389 255.939C166.197 256.17 166.923 256.062 167.678 256.234C168.39 256.396 169.121 256.861 169.873 257.054C171.655 257.511 173.357 257.684 174.922 257.727C175.125 258.101 175.358 258.148 175.623 257.864C175.731 257.803 175.839 257.742 175.946 257.681C176.445 257.615 176.801 257.39 177.325 257.356C178.133 257.305 178.959 257.415 179.708 257.343C181.277 257.192 182.75 257.092 184.484 257.271C185.513 257.377 186.414 257.227 187.426 257.246C187.415 257.245 188.816 257.519 188.848 257.507C188.972 257.458 189.168 257.113 189.249 257.097C189.22 256.766 189.319 256.616 189.548 256.649C189.732 256.609 189.853 256.705 189.911 256.936C189.856 256.943 190.348 257.191 190.383 257.197C190.411 257.201 191.677 257.051 191.766 257.018C192.129 256.882 192.284 256.487 192.573 256.427C192.916 256.357 193.121 256.736 193.418 256.72C194.073 256.684 193.996 256.393 194.5 256.301C196.269 255.983 198.434 256.397 200.261 256.4C202.081 256.403 203.891 256.236 205.645 256.159C207.8 256.064 209.911 256.474 212.083 256.183C214.148 255.907 216.214 255.786 218.295 255.699C222.643 255.516 227.106 255.709 231.414 255.198C235.901 254.666 240.461 255.198 244.954 255.118C249.692 255.033 254.455 254.99 259.19 254.796C263.904 254.603 268.598 254.042 273.292 253.929C274.487 253.9 275.66 253.616 276.849 253.529C277.939 253.45 279.01 253.623 280.108 253.527C282.109 253.352 283.928 253.486 285.938 253.456C288.186 253.421 290.37 253.078 292.605 252.941C294.866 252.801 297.104 253.12 299.346 252.674C300.572 252.43 302.858 250.752 301.294 249.345Z" fill="black"/>
<path fill-rule="evenodd" clip-rule="evenodd" d="M212.541 49.3748C212.538 49.3748 212.535 49.3751 212.532 49.3748C212.521 49.3878 212.509 49.402 212.498 49.4143L212.541 49.3748Z" fill="black"/>
<path fill-rule="evenodd" clip-rule="evenodd" d="M231.264 39.0234C231.548 38.0362 230.829 37.3293 230.347 36.5625C230.063 38.302 229.192 38.2268 231.264 39.0234Z" fill="black"/>
<path fill-rule="evenodd" clip-rule="evenodd" d="M179.108 76.0841C179.115 76.1039 179.125 76.1212 179.131 76.142C179.139 76.1077 179.129 76.0897 179.108 76.0841Z" fill="black"/>
<path fill-rule="evenodd" clip-rule="evenodd" d="M171.26 74.7812C171.324 74.9264 171.466 75.9319 171.568 75.9368C172.479 75.98 171.369 74.2792 170.787 74.1797C169.945 74.7232 171.28 74.8259 171.26 74.7812Z" fill="black"/>
<path fill-rule="evenodd" clip-rule="evenodd" d="M171.211 68.9062C171.151 68.138 170.892 68.0406 170.156 68.414C170.376 68.897 170.638 68.8278 171.211 68.9062Z" fill="black"/>
<path fill-rule="evenodd" clip-rule="evenodd" d="M161.016 50.098C161.367 50.1567 161.719 50.2151 162.07 50.2734C161.864 49.8052 161.657 49.3358 161.451 48.8672C161.306 49.2778 161.161 49.6877 161.016 50.098Z" fill="black"/>
<path fill-rule="evenodd" clip-rule="evenodd" d="M168.232 204.431C168.232 204.431 168.232 204.43 168.233 204.429C168.208 204.439 168.204 204.441 168.232 204.431Z" fill="black"/>
<path fill-rule="evenodd" clip-rule="evenodd" d="M96.5081 108.685C97.2527 107.44 98.6646 105.902 100.272 106.419C101.773 106.903 102.189 108.872 102.836 110.11C104.095 112.517 104.487 109.932 104.766 108.471C104.538 105.545 103.4 100.782 99.5488 101.287C96.6195 101.672 94.09 106.377 94.648 109.159C95.1166 111.498 95.9076 109.689 96.5081 108.685Z" fill="black"/>
<path fill-rule="evenodd" clip-rule="evenodd" d="M207.516 53.5384C206.077 53.0251 206.079 54.579 206.023 55.7473C205.972 56.8206 206.139 59.3385 207.494 59.7217C208.843 60.1042 208.97 57.8805 209.18 56.9816C208.865 55.9146 208.691 53.9578 207.516 53.5384Z" fill="black"/>
<path fill-rule="evenodd" clip-rule="evenodd" d="M209.18 51.2065C208.124 50.2735 207.419 49.9876 206.071 50.5902C205.377 50.9003 204.385 51.5749 204.277 52.4257C203.937 55.0737 208.249 51.7497 209.18 51.2065Z" fill="black"/>
<path fill-rule="evenodd" clip-rule="evenodd" d="M209.4 67.0686C211.86 67.7043 212.017 64.3416 209.281 64.3359C207.451 64.3324 208.026 66.7136 209.4 67.0686Z" fill="black"/>
<path fill-rule="evenodd" clip-rule="evenodd" d="M190.593 56.6152C189.675 56.7492 189.35 57.3254 189.547 58.2451C189.775 59.3061 190.35 59.3149 191.38 59.414C193.861 59.4218 192.242 56.3744 190.593 56.6152Z" fill="black"/>
<path fill-rule="evenodd" clip-rule="evenodd" d="M212.377 50.9206C212.604 51.5506 213.837 51.835 214.482 51.5949C215.249 51.3091 215.408 50.6147 214.716 49.977C214.124 49.431 213.307 49.5752 212.565 49.6258C212.589 49.8642 212.236 50.529 212.377 50.9206Z" fill="black"/>
<path fill-rule="evenodd" clip-rule="evenodd" d="M135.197 122.695C136.37 122.694 135.263 120.709 134.297 120.586C134.317 121.2 134.277 122.697 135.197 122.695Z" fill="black"/>
</svg>
