<svg width="359" height="270" viewBox="0 0 359 270" fill="none" xmlns="http://www.w3.org/2000/svg">
<path fill-rule="evenodd" clip-rule="evenodd" d="M90.4003 116.786C101.972 119.872 113.417 123.5 124.892 126.925C126.183 127.31 126.179 127.375 127.334 126.679C130.474 124.788 133.674 122.991 136.911 121.27C146.673 116.079 156.709 111.925 167.458 109.283C175.078 107.409 182.824 105.924 190.596 104.833C189.805 107.265 188.272 109.8 186.377 111.513C184.908 112.84 182.905 113.566 181.089 114.278C175.692 116.395 170.041 117.875 164.737 120.228C159.327 122.628 155.909 127.618 154.882 133.406C154.689 134.489 154.701 134.654 155.59 135.2C156.586 135.813 157.797 136.172 158.895 136.546C167.713 139.549 177.012 141.399 186.13 143.222C190.971 144.189 195.829 145.089 200.712 145.814C203.742 146.264 206.945 146.867 210.023 146.688C223.213 145.918 231.031 130.218 234.892 119.599C246.811 126.055 260.484 130.181 273.833 132.172C290.02 134.586 310.411 134.719 323.206 122.791C329.3 117.109 333.042 109.417 335.791 101.669C326.823 100.9 317.895 99.5551 309.001 98.1946C307.449 97.9569 305.896 97.715 304.345 97.469C303.721 97.3698 302.762 97.0193 302.123 97.1125C301.154 97.2531 299.902 98.3043 299.044 98.7701C292.463 102.342 285.66 105.617 278.6 108.13C274.817 109.477 270.89 110.668 266.879 111.066C262.576 111.495 258.17 110.615 254.015 109.564C243.592 106.929 232.687 102.47 223.994 96.0441C221.879 99.0594 218.062 101.102 214.422 99.6469C210.436 98.0533 208.219 93.8739 206.083 90.4367C205.306 89.1851 203.839 89.1763 202.392 88.8072C198.35 87.776 194.258 86.9354 190.147 86.2379C176.645 83.9475 162.762 83.1706 149.134 84.7505C135.837 86.2924 122.745 90.5818 111.02 97.0291C105.92 99.8339 100.954 103.084 96.7157 107.099C94.0389 109.635 90.9111 112.954 90.4003 116.786Z" fill="#FF5678"/>
<path fill-rule="evenodd" clip-rule="evenodd" d="M130.571 29.575C134.744 30.9721 138.509 33.0248 142.187 35.415C143.979 36.5797 145.772 37.9427 147.753 38.7675C149.511 39.4991 151.431 39.832 153.237 40.4332C161.328 43.1268 170.108 43.6686 178.336 41.079C186.723 38.4391 193.842 32.77 202.516 30.9918C210.975 29.2575 219.578 29.641 227.701 32.7816C231.646 34.307 234.973 36.8701 238.34 39.3662C241.567 41.7582 244.952 44.1175 247.45 47.3108C249.903 50.4467 251.319 54.3491 252.4 58.1438C253.023 60.3323 253.31 62.5922 253.265 64.8685C253.235 66.4611 252.392 67.9995 252.888 69.539C253.583 71.698 254.594 73.2849 254.334 75.6886C254.123 77.6243 253.243 79.2924 251.868 80.6512C250.456 82.0452 248.768 83.0025 246.887 83.6072C245.464 84.0645 245.014 83.9489 244.187 82.7086C241.872 84.8046 240.218 87.4533 237.318 88.8377C235.878 89.5254 234.403 89.8565 232.816 89.9574C231.614 90.0337 230.512 90.0685 229.496 90.7994C228.431 91.5669 224.535 94.99 226.026 96.3365C226.895 97.1219 228.923 97.2777 230.029 97.7291C231.576 98.3605 233.064 99.135 234.468 100.042C239.604 103.359 244.717 105.428 250.657 106.913C256.823 108.454 263.04 109.288 269.402 109.311C275.181 109.332 281.236 108.893 286.595 106.553C289.167 105.43 291.65 103.941 293.754 102.076C295.854 100.216 297.143 97.6285 299.3 95.8971C300.697 94.7763 299.405 93.0508 298.974 91.5124C298.096 88.3828 297.425 84.82 297.158 81.5839C296.899 78.4402 296.467 75.3057 295.908 72.1951C295.317 68.8974 294.083 65.8279 293.212 62.6073C292.57 60.2325 291.924 57.4453 292.668 55.0202C293.038 53.8172 293.857 52.5459 295.021 51.9718C296.063 51.4582 296.705 51.949 297.638 51.8938C300.375 51.7327 302.489 52.849 304.555 54.6753C305.671 55.6622 306.964 56.5263 308.027 57.5599C308.854 58.3636 309.05 59.6605 309.932 60.3731C311.379 56.6792 312.895 51.9834 317.805 54.0959C321.688 55.7676 322.188 62.0486 324.072 65.3231C325.131 64.4512 325.25 62.7331 325.662 61.5178C326.088 60.2599 326.807 58.9313 327.819 58.0415C330.031 56.0981 332.73 56.8786 334.252 59.2066C335.066 60.4511 334.582 61.8799 335.389 63.109C336.191 64.3278 335.941 65.752 336.268 67.1716C336.683 68.9709 337.184 70.7438 337.518 72.5635C337.673 73.4048 337.898 74.3533 337.859 75.2168C337.842 75.5747 337.553 76.1902 337.642 76.5436C337.758 77.0059 338.307 77.4218 338.508 77.8791C338.78 78.4937 338.679 78.9405 338.71 79.5744C338.765 80.7156 339.071 81.6518 339.398 82.7789C340.224 85.6177 340.015 89.2111 338.792 91.8995C338.158 93.2931 337.714 94.3066 337.526 95.7979C337.404 96.7609 336.678 97.638 336.722 98.673C336.783 100.113 340.636 102.335 337.594 103.29C336.324 103.689 336.051 103.481 335.704 104.932C335.36 106.373 334.97 107.774 334.405 109.147C333.207 112.059 331.434 114.667 329.762 117.32C327.952 120.191 326.052 122.966 323.378 125.107C320.898 127.092 318.056 128.707 315.226 130.136C309.263 133.147 302.628 134.828 295.933 134.665C288.793 134.491 281.551 135.166 274.476 133.953C267.231 132.711 260.163 130.656 252.949 129.278C249.708 128.658 246.687 127.983 243.738 126.453C240.746 124.902 237.762 123.318 235.024 121.34C233.139 125.86 232.123 130.571 229.42 134.728C227.06 138.357 224.214 141.768 220.73 144.37C217.327 146.912 212.881 148.814 208.596 148.977C207.289 149.027 205.279 148.453 204.341 149.438C203.871 149.931 203.823 150.91 203.637 151.543C203.32 152.62 202.861 153.671 202.606 154.766C202.219 156.425 203.777 156.451 205.143 157.124C206.973 158.028 208.762 159.015 210.532 160.031C212.34 161.07 214.064 162.265 215.876 163.287C217.431 164.165 219.037 164.843 220.534 165.837C224.073 168.189 227.95 169.757 231.75 171.617C235.817 173.61 239.774 175.833 243.771 177.961C251.689 182.178 259.631 186.553 267.107 191.522C270.596 193.842 273.951 196.257 277.53 198.451C280.867 200.497 284.678 202.893 286.802 206.25C288.459 208.869 290.84 210.109 293.58 211.536C295.195 212.377 296.193 212.536 297.505 211.16C298.792 209.809 300.036 208.466 301.394 207.177C306.961 201.894 311.725 196.11 316.368 190.026C319.815 185.509 324.541 180.086 330.872 181.076C332.77 181.373 334.031 182.256 335.434 183.499C336.387 184.342 338.108 184.894 338.743 185.986C339.109 186.616 339.263 187.425 339.632 188.086C340.019 188.778 340.499 189.453 340.757 190.209C341.194 191.49 340.252 193.524 341.192 194.567C341.879 195.33 341.24 197.128 341.052 197.991C340.705 199.587 340.411 201.207 339.862 202.748C339.43 203.961 339.006 205.624 338.096 206.57C337.284 207.415 336.332 207.332 336.544 208.795C335.666 208.503 334.911 210.606 334.663 211.136C333.997 212.561 333.27 213.732 332.198 214.914C329.487 217.899 326.383 219.92 322.867 221.818C321.585 222.51 318.925 223.473 318.627 225.074C318.341 226.611 319.218 227.859 318.602 229.501C317.319 232.916 314.437 236.517 312.084 239.273C309.968 241.751 307.916 243.408 304.523 242.826C301.516 242.311 298.542 240.776 296.04 239.075C293.028 237.026 289.835 235.485 286.581 233.858C284.98 233.058 283.378 232.319 281.99 231.169C280.7 230.1 279.58 228.897 278.085 228.103C277.02 227.537 275.629 227.137 275.185 225.878C274.701 224.505 275.585 223.648 276.337 222.664C276.842 222.004 277.121 221.901 276.686 221.371C276.337 220.948 275.381 220.589 274.901 220.331C273.739 219.707 272.578 219.162 271.336 219.847C269.95 220.611 269.003 222.192 267.965 223.34C266.721 224.716 265.324 225.969 263.96 227.224C261.254 229.712 258.289 231.942 255.646 234.489C255.041 235.072 253.85 236.548 252.853 236.269C252.117 236.063 252.504 235.625 252.124 235.288C251.716 234.926 251.369 234.922 250.846 234.53C249.545 233.556 249.147 231.687 247.783 230.678C246.38 229.642 244.648 228.896 243.129 228.043C236.197 224.148 229.444 219.947 223.108 215.132C219.931 212.717 216.93 210.098 213.853 207.561C212.404 206.368 210.935 205.06 209.324 204.09C207.855 203.205 206.222 202.587 204.725 201.738C201.518 199.921 198.087 198.529 194.912 196.652C193.42 195.77 192.313 194.585 190.925 193.602C189.709 192.741 188.697 192.232 187.793 190.979C187.363 191.925 186.183 190.69 185.757 190.401C185.422 190.172 184.992 190.01 184.682 189.749C184.369 189.486 184.18 188.901 183.942 188.718C183.416 188.313 182.805 188.405 182.099 188.152C181.155 187.813 179.91 186.911 179.184 186.222C178.682 185.746 179.501 186.121 178.653 185.536C178.258 185.264 177.58 185.191 177.137 184.903C176.083 184.219 175.116 183.342 174.11 182.587C172.288 181.221 169.932 179.978 168.898 177.848C163.342 182.41 157.977 187.361 151.597 190.775C145.435 194.073 138.307 195.57 131.728 197.845C124.957 200.186 118.12 202.539 111.236 204.523C107.89 205.488 104.439 206.18 101.019 206.832C97.5099 207.501 94.0499 207.301 90.5293 207.679C88.7986 207.865 87.0657 207.805 85.3357 207.972C83.7424 208.127 82.1973 208.531 80.6152 208.742C79.2206 208.928 77.6477 208.771 76.3065 209.15C75.3225 209.428 74.0227 210.415 73.302 209.131C72.774 209.922 72.6063 209.548 71.9186 209.498C71.1853 209.444 70.9645 209.476 70.2466 209.613C69.0791 209.836 67.7906 209.922 66.7995 209.005C66.346 210.648 61.9518 209.154 61.4277 208.068C60.8374 209.808 55.4996 208.306 55.4223 206.673C55.3572 205.291 56.2752 203.303 56.6541 202.005C57.2725 199.885 58.039 197.812 58.8398 195.756C59.6871 193.581 60.5558 191.414 61.4273 189.249C61.8102 188.297 62.1719 187.331 62.6089 186.403C62.8234 185.947 63.3813 185.268 63.3722 184.742C63.3451 183.206 60.5913 183.097 59.4269 182.713C58.5463 182.423 57.6522 182.117 56.8159 181.716C56.2087 181.424 55.4803 180.754 54.8084 180.661C53.269 180.448 53.6177 182.19 53.4504 183.261C53.2356 184.638 52.4765 185.347 51.0175 185.357C49.3132 185.368 44.4528 182.437 43.5359 184.672C43.106 185.718 43.2227 187.726 43.0652 188.85C42.8065 190.694 42.9091 192.527 43.1615 194.366C43.576 197.392 44.944 201.221 43.4041 204.123C40.3297 209.918 29.6688 206.425 26.266 202.778C21.2548 197.407 21.4011 189.356 23.8022 182.853C24.9698 179.69 26.6612 176.3 28.8721 173.728C29.8544 172.585 31.723 171.482 32.0471 169.912C32.3164 168.609 31.3039 167.409 31.5169 166.074C31.7701 164.49 33.1106 163.529 34.2596 162.568C35.4556 161.568 36.6193 160.477 37.9823 159.703C41.1362 157.911 44.713 158.992 47.8486 160.308C51.2774 161.747 54.562 163.677 57.6248 165.778C59.1411 166.817 60.4268 167.753 62.2247 168.256C63.6031 168.642 64.9957 169.021 66.3805 169.383C67.6872 169.725 68.7887 169.979 69.7059 168.849C70.7152 167.606 71.0496 167.104 72.7965 167.05C74.657 166.994 76.5188 167.097 78.3775 167.168C78.7702 167.183 79.6618 167.061 79.9715 167.388C80.2475 167.68 79.8478 168.288 80.1048 168.473C80.5105 168.764 82.8153 165.508 83.0125 168.144C83.1384 166.865 84.481 167.484 85.2295 167.652C85.502 167.714 85.7737 167.786 86.0434 167.846C86.3359 167.748 86.5791 167.823 86.7714 168.07C87.0791 168.135 87.2872 168.018 87.3958 167.718C90.6485 167.671 93.9296 167.876 97.1904 167.859C100.961 167.839 104.754 167.802 108.489 167.256C109.873 167.053 111.257 166.774 112.643 166.604C113.279 166.527 113.812 166.595 114.431 166.636C114.657 166.679 114.862 166.772 115.047 166.917C115.141 166.731 115.282 166.59 115.469 166.494C117.841 165.799 120.282 165.328 122.693 164.721C124.38 164.297 125.795 163.969 127.475 163.85L127.793 163.829L128.468 164.028C128.567 163.788 128.728 163.6 128.95 163.465C129.498 163.241 129.963 163.154 130.553 163.094C132.903 162.854 135.208 162.879 137.429 162.535C138.598 162.354 142.872 161.692 143.66 162.851C144.265 161.439 148.616 163.362 149.891 162.528C147.913 159.83 147.051 156.945 146.492 153.683C145.882 150.13 145.499 146.393 146.401 142.854C147.232 139.593 149.043 136.246 151.518 133.952C153.911 131.734 154.473 129.08 156.07 126.342C159.397 120.637 164.879 117.151 170.986 115.046C174.312 113.9 177.693 112.946 181.047 111.893C183.772 111.038 186.053 109.814 187.431 107.197C175.83 107.197 164.728 110.795 154.106 115.16C148.821 117.331 143.56 119.59 138.341 121.913C135.684 123.096 133.057 124.36 130.579 125.887L129.893 126.309C129.095 126.803 128.301 127.309 127.556 127.879C127.379 128.015 126.409 128.58 126.352 128.769C125.91 130.237 128.35 132.598 128.983 133.857C129.846 135.572 130.69 137.578 130.797 139.511C130.923 141.823 129.448 142.98 127.176 142.505C124.397 141.925 122.294 139.609 120.087 137.999C119.595 139.477 120.231 141.177 120.575 142.617C121.048 144.592 121.517 146.597 121.854 148.601C122.328 151.433 121.991 154.629 119.173 156.114C111.991 159.896 108.33 149.917 106.872 144.933C105.886 145.644 106.001 148.249 105.82 149.338C105.471 151.433 105.072 153.683 104.141 155.608C103.428 157.082 102.217 158.803 100.434 158.961C98.4996 159.134 96.9407 157.471 96.0745 155.936C94.5775 153.285 94.2246 150.33 94.1064 147.358C94.0801 146.704 94.2699 140.643 93.6083 140.47C91.6627 143.956 90.5775 147.832 88.292 151.156C86.2891 154.069 83.2752 156.045 80.5671 152.677C76.3733 147.46 77.7152 139.922 79.4333 134.053C80.4324 130.64 81.7923 127.382 83.6257 124.33C84.3857 123.064 85.3058 122.114 86.2497 120.998C87.0281 120.078 87.3276 119.646 86.9919 118.585C86.7964 117.967 86.6115 117.944 86.7859 117.26C86.9114 116.77 87.2875 116.166 87.5023 115.711C88.1169 114.409 88.762 113.124 89.5147 111.896C91.1238 109.272 93.3147 107.089 95.6171 105.065L95.8484 104.863L95.8375 104.873C95.6892 105.009 96.7664 104.189 96.7442 104.187L96.7382 104.189L96.7667 104.172C97.164 103.912 97.3152 103.058 97.7673 103.821L97.8003 103.878C97.871 102.756 98.8153 102.119 99.6253 101.49C99.9269 101.256 100.229 100.931 100.595 100.791C100.85 100.694 101.443 100.789 101.627 100.653C101.986 100.389 102.161 99.8662 102.502 99.5551C102.844 99.2439 103.316 99.0984 103.705 98.8611C104.658 98.2793 105.534 97.567 106.464 96.9468C108.439 95.6292 110.501 94.442 112.614 93.3602C117.059 91.0838 121.777 89.2522 126.498 87.6368C130.659 86.2129 134.972 84.8939 139.246 83.8568C143.633 82.7919 148.244 83.057 152.724 82.6193C161.855 81.7266 171.494 81.9067 180.621 82.7975C185.095 83.2341 189.543 83.9169 193.954 84.7705C198.233 85.5981 202.684 86.5399 206.484 88.7772C207.294 89.254 208.758 90.7829 209.707 90.7266C210.507 90.6795 211.2 89.2047 211.576 88.6236C212.468 87.2434 213.59 85.9749 214.349 84.5205C215.282 82.7293 215.76 80.7159 216.463 78.8312C213.206 79.2801 209.786 79.5712 206.66 78.3235C203.829 77.1936 201.922 74.9355 199.808 72.8504C197.58 70.6542 195.195 69.166 192.009 68.9642C188.395 68.735 185.136 70.0319 181.811 71.2406C174.788 73.7943 167.766 76.6002 160.538 78.5264C157.005 79.4679 153.373 80.2111 149.713 80.3784C147.849 80.4631 145.963 80.3795 144.12 80.7236C143.355 80.866 143.126 80.9852 142.522 80.6477C142.604 80.6938 141.753 79.2784 141.584 79.8293C141.421 80.3601 141.687 80.775 141.222 81.175C140.676 81.6447 139.49 81.4162 138.858 81.3621C137.91 81.2812 137.154 80.9595 136.242 80.7454C134.831 80.4146 133.25 80.6326 131.812 80.4519C131.144 80.3679 130.659 80.1995 130.059 80.0145C129.429 79.8208 129.835 79.8454 129.186 79.7628C128.612 79.6897 128.286 79.7653 127.591 79.5392C126.969 79.3371 126.394 79.1979 125.758 79.0495C125.176 78.9142 124.706 78.6705 124.164 78.512C124.845 78.7113 123.29 78.095 123.357 78.2592L123.363 78.2697L123.358 78.2641C123.189 78.0739 122.993 77.6914 122.659 77.6324L122.59 77.6246C123.69 79.3128 118.856 77.529 118.535 77.4316C115.864 76.6188 113.127 74.7738 110.336 74.604C107.61 74.4381 104.967 76.2954 102.773 77.6728C100.123 79.3364 97.4853 81.0137 94.8458 82.6941C89.0113 86.4084 82.6933 89.7307 76.1455 91.9881C72.9607 93.086 69.6971 93.9667 66.4666 94.9176C65.0101 95.3462 63.4196 95.5223 62.0278 96.1372C61.087 96.5527 59.731 97.7962 58.7804 96.6948C58.3975 97.6584 56.5385 97.6092 55.7503 97.6391C55.629 97.6436 55.8238 97.8746 55.5464 97.8553C55.1379 97.8265 55.0285 97.4299 54.7068 97.3469C54.0533 97.1789 53.9854 97.4306 53.3379 97.6805C52.4966 98.005 52.6569 97.7241 51.913 97.6475C51.4872 97.6036 51.0362 97.8373 50.6097 97.8507C50.4364 97.8563 50.209 97.5677 49.9583 97.5719C49.7171 97.5765 49.1518 97.8644 48.8326 97.9122C48.0331 98.0325 47.0924 97.9527 46.2862 97.9168C45.1327 97.8651 33.5796 96.835 34.4087 94.4198C33.0185 95.7023 29.7939 93.6059 28.3448 92.9401C27.8051 92.6922 27.7703 92.4514 27.4662 92.1719C27.5503 91.8362 27.4065 91.6864 27.0349 91.7223C26.9554 91.7131 26.8756 91.7043 26.7965 91.6952C26.1598 91.3707 25.9331 91.3781 25.4261 90.8089C24.7501 90.0492 23.5055 89.3622 23.155 88.3722C23.0612 88.1065 23.161 87.6477 23.0654 87.4388C22.943 87.1709 22.621 87.2019 22.5465 86.9846C22.5205 86.9087 22.6449 86.4105 22.6358 86.4024C22.0511 85.9131 21.2271 86.1451 20.5496 85.5576C18.6775 83.9331 17.548 80.6744 17.0094 78.3604C15.6006 72.3083 15.1197 66.2227 17.8538 60.4982C19.1827 57.7149 20.8097 55.0677 22.6062 52.5635C23.1033 51.8709 23.624 50.9565 24.2582 50.3718C24.543 50.1092 24.9156 50.0554 25.0545 49.8983C25.7956 49.0598 26.1799 47.9816 27.173 47.1656C28.2787 46.2568 29.3689 45.3227 30.5902 44.5711C31.711 43.8809 33.1067 43.4355 34.1343 42.79C34.4164 42.6129 34.3194 42.3334 34.6256 42.1228C34.9501 41.8995 35.3699 41.8823 35.7376 41.7737C36.1739 41.6454 36.7149 41.4088 37.1677 41.3697C38.0132 41.2963 38.297 41.5385 38.9347 42.139C38.9347 39.8281 43.19 39.5065 44.9113 39.5022C45.7054 39.5001 49.6964 39.144 49.6197 40.3604C50.5289 39.1588 53.2929 40.0528 54.4952 40.4131C55.938 40.8452 56.8507 41.9024 57.7763 43.0316C57.9479 42.6737 58.1198 42.3154 58.2917 41.9575C58.5543 42.1411 59.4424 42.4462 59.1562 42.9303C60.1958 42.0131 59.6097 42.7686 60.5002 42.9317C60.8915 43.0034 61.2287 42.859 61.6404 42.8101C61.6745 43.3536 61.4386 43.5297 61.1021 43.9087C61.9086 43.9238 65.008 43.6018 62.714 44.6154C63.0206 45.1638 64.4754 44.9711 64.9869 45.045C65.2579 45.084 65.9333 45.0981 66.095 45.2963C66.2015 45.4268 66.0141 45.7875 66.0381 45.8195C66.2567 46.1158 65.8025 46.2681 66.2511 46.3538C66.3615 46.3749 66.7106 46.0244 66.7897 46.0258C67.3715 46.035 66.9634 45.9193 67.5804 46.0083C67.798 46.0395 68.2156 46.2877 68.4951 46.3451C72.709 47.2074 77.8597 43.9632 80.9207 41.4516C84.5791 38.4507 87.7636 35.2431 92.1616 33.2952C96.4162 31.4112 101.156 29.9255 105.678 28.8479C114.04 26.8553 122.344 26.8205 130.571 29.575ZM237.012 221.599C237.148 221.671 237.283 221.743 237.418 221.815C237.611 221.717 237.804 221.62 237.997 221.522C237.444 221.26 237.406 221.145 237.012 221.599ZM281.918 209.647C280.904 210.286 280.034 211.731 279.147 212.593C277.901 213.803 276.599 214.953 275.299 216.104C276.798 216.624 278.972 218.728 280.594 217.775C281.397 217.303 281.904 215.914 282.413 215.178C283.2 214.037 284.119 212.967 285.044 211.937C285.997 210.876 282.98 208.976 281.918 209.647ZM186.893 187.802C187.294 187.971 188.174 188.94 187.766 189.28C187.352 188.802 186.797 188.456 186.893 187.802ZM57.885 172.458C57.1513 173.092 56.324 174.415 55.8132 175.249C55.2377 176.188 55.2173 176.661 56.0962 177.288C57.7946 178.499 60.2619 178.854 62.2317 179.419C63.2832 179.721 64.5833 180.48 65.4766 179.52C66.3611 178.571 66.3632 176.803 66.7612 175.626C67.0836 174.672 67.4285 173.727 67.7632 172.778C65.9066 172.965 64.0394 172.978 62.2141 172.562C60.8891 172.261 59.0567 171.445 57.885 172.458ZM89.9534 121.704C88.4544 123.74 87.117 125.897 85.9379 128.133C83.9867 131.835 82.4701 135.765 81.5093 139.839C80.8283 142.726 79.8334 146.784 81.3883 149.554C84.7756 155.586 91.6508 138.171 92.7002 136.35C93.3249 135.265 94.2945 134.102 95.3686 135.496C96.2496 136.641 95.9627 138.475 96.0035 139.822C96.1251 143.827 95.5661 148.624 97.1675 152.392C97.6931 153.629 99.0853 155.415 100.657 154.853C102.065 154.349 102.769 151.923 103.205 150.673C104.583 146.719 105.56 141.886 105.605 137.702C105.613 136.862 104.859 131.305 106.804 132.534C108.076 133.338 108.024 137.239 108.147 138.516C108.631 143.503 109.616 151.973 115.803 152.812C117.166 152.997 118.708 152.674 119.505 151.45C120.497 149.928 119.5 147.881 119.152 146.282C118.554 143.524 117.876 140.681 117.816 137.842C117.779 136.102 117.95 133.209 120.395 133.881C123.341 134.69 124.587 138.543 127.895 138.672C127.898 137.896 127.469 137.264 127.105 136.616C125.928 134.522 123.784 132.729 123.058 130.412C122.82 129.652 123.068 128.509 122.597 127.876C122.152 127.278 121.149 127.124 120.478 126.989C116.009 126.086 111.617 124.865 107.17 123.825C102.416 122.713 98.0077 121.511 93.5556 119.554C91.5495 118.672 91.0915 120.159 89.9534 121.704ZM196.552 152.941C197.208 153.253 197.859 153.577 198.523 153.872C199.1 154.129 199.326 153.924 199.556 153.385C199.14 153.299 196.795 152.466 196.552 152.941ZM168.4 85.3818C159.899 85.6311 151.587 85.7397 143.208 87.3538C139.2 88.1258 135.272 89.0202 131.342 90.1163C129.682 90.5793 128.218 91.062 126.77 91.9856C126.232 92.3287 124.807 93.4063 124.589 92.1747C123.873 92.8606 122.477 94.9545 121.333 93.7912C121.132 94.6322 120.507 94.6061 119.896 94.892C119.682 94.9925 119.564 95.3346 119.288 95.4587C119.219 95.4896 119.195 95.009 119.094 95.0009C118.73 94.9721 118.442 95.7399 118.232 95.9358C117.728 96.4051 117.255 96.6199 116.587 96.7904C116.296 96.8874 115.999 96.9497 115.694 96.9771C115.335 97.1244 115.12 97.0186 115.049 96.6596C114.553 96.6677 114.191 96.8477 113.672 97.0825C114.792 97.3392 112.908 97.6215 112.658 97.65C112.627 98.4867 113.342 97.9565 113.804 98.1299C113.59 99.18 111.644 99.9815 110.843 100.497C110.706 100.205 110.569 99.9144 110.432 99.6236C110.211 99.8377 110.039 100.084 109.917 100.363C109.834 100.7 109.594 100.817 109.198 100.713C108.826 101.008 108.771 100.871 108.543 101.286C108.307 101.716 109.004 102.553 107.991 102.193C107.991 103.621 106.665 102.755 106.897 102.384C105.894 102.287 105.465 104.124 105.578 104.84C105.098 104.365 104.804 104.425 104.322 104.797L104.279 104.83L104.305 104.812C104.675 104.561 104.294 105.587 104.327 105.575L104.332 105.571C103.313 106.913 103.409 105.41 103.724 104.618C103.034 104.895 102.903 105.643 102.349 106.066C101.856 106.442 101.717 106.267 101.292 106.324C100.639 106.41 100.836 105.873 100.55 106.593C100.428 106.898 100.612 107.444 100.612 107.777C100.895 107.39 100.788 106.777 101.3 106.555C101.147 107.678 98.964 111.535 98.0461 109.262C97.1531 109.882 98.1371 110.562 97.5511 111.393C97.1151 110.973 97.0107 110.304 97.0596 109.731C96.7857 110.095 96.7945 110.555 96.58 110.924C96.3565 111.308 96.1223 111.339 96.0144 111.756C95.8509 112.391 96.4095 112.08 96.1146 112.753C95.9666 113.091 95.2733 113.386 95.0005 113.576C94.0449 114.242 93.0788 115.014 94.0062 116.12C95.4586 117.853 99.2853 118.051 101.341 118.342C105.723 118.963 109.994 119.994 114.312 120.949C116.912 121.525 119.459 122.165 122.009 122.933C123.841 123.483 126.37 123.826 127.336 125.722C132.441 120.841 139.248 118.295 145.548 115.368C152.372 112.198 159.419 109.254 166.648 107.135C173.057 105.257 179.63 104.544 186.252 103.896C187.996 103.725 190.687 103.288 192.242 104.36C193.202 105.022 193.246 106.024 192.511 106.909C192.113 107.389 191.684 107.264 191.44 108.119C191.252 108.78 191.355 109.281 191.528 109.935C191.086 109.589 190.296 109.795 190.07 109.185L190.048 109.117L190.027 109.189C189.725 110.38 191.831 110.545 191.185 111.973L191.143 112.06C190.92 112.496 190.919 111.097 190.723 111.087C190.188 111.059 189.751 112.307 189.531 112.653C190.525 112.653 190.147 113.376 189.613 113.741C189.233 114.001 188.591 114.077 188.148 114.292C187.266 114.722 186.491 115.353 185.586 115.763C184.595 116.213 183.724 116.241 182.74 116.507C182.588 116.549 181.983 116.775 181.922 116.78C181.839 116.788 181.82 117.043 181.749 117.053C181.12 117.142 180.645 116.558 180.036 116.796C179.803 116.887 179.924 117.456 179.721 117.585C179.498 117.728 178.866 117.546 178.596 117.531C177.946 117.494 177.846 117.408 177.331 117.709C176.445 118.227 175.994 118.926 174.8 119.053C173.866 119.153 173.264 118.976 172.375 119.326C171.476 119.68 170.624 119.759 169.748 119.996C169.636 120.026 169.607 120.406 169.517 120.433C169.227 120.518 168.88 120.453 168.603 120.538C167.967 120.734 167.45 120.908 166.859 121.259C164.262 122.803 161.404 125.12 159.367 127.345C158.437 128.361 155.844 130.919 156.69 132.389C157.232 133.333 159.105 133.791 160.04 134.189C161.433 134.784 162.873 135.217 164.282 135.767C166.033 136.452 167.622 137.516 169.408 138.112C171.132 138.688 172.977 138.801 174.758 139.108C182.463 140.437 190.012 142.574 197.722 143.9C201.951 144.627 206.268 145.494 210.562 144.809C214.347 144.205 217.971 142.531 220.995 140.192C226.496 135.936 230.329 129.893 232.257 123.245C232.655 121.872 232.739 118.437 234.023 117.597C235.094 116.897 235.655 118.439 236.349 119.049C237.478 120.038 239.131 120.421 240.488 120.986C243.849 122.383 246.901 123.858 250.453 124.804C254.053 125.762 257.704 126.513 261.344 127.303C268.723 128.904 275.766 130.419 283.35 130.443C290.855 130.467 298.388 130.75 305.809 129.367C312.301 128.158 318.831 124.855 323.684 120.371C326.135 118.106 328.025 115.246 329.951 112.543C330.985 111.093 331.946 109.59 332.753 108.002C333.346 106.834 334.367 105.144 334.471 103.82C334.564 102.637 333.872 102.805 332.69 102.684C330.873 102.498 329.047 102.38 327.228 102.193C323.559 101.817 319.903 101.337 316.236 100.947C312.493 100.549 308.775 100.01 305.14 99.0182C304.053 98.7219 303.25 98.3482 302.482 99.4043C301.987 100.084 301.997 101.636 300.964 100.497C298.979 103.003 296.077 104.504 293.364 106.077C290.43 107.778 287.578 109.651 284.467 111.026C277.766 113.987 270.381 113.752 263.268 112.803C256.042 111.839 248.719 110.595 241.929 107.845C238.814 106.584 236.138 104.665 233.345 102.834C232.029 101.972 230.665 101.263 229.268 100.544C227.693 99.734 226.731 98.5331 225.307 97.5969C224.347 100.722 220.655 101.796 217.74 101.936C214.099 102.11 211.156 100.372 208.949 97.5491C207.116 95.2056 206.759 91.7001 203.922 90.4173C200.685 88.9541 196.891 88.3726 193.427 87.692C185.291 86.0941 176.691 85.1382 168.4 85.3818ZM211.558 109.408C212.473 109.817 215.133 112.878 213.022 112.922C211.681 112.951 210.892 111.268 209.41 111.523C208.745 111.637 207.752 111.866 207.588 112.379C207.181 113.657 209.061 114.479 209.873 114.834C211.124 115.38 212.153 115.93 212.836 117.18C213.886 119.1 214.161 122.207 211.707 123.065C209.883 123.704 207.603 123.209 205.803 122.707C204.285 122.283 203.127 120.714 203.825 119.155C204.023 118.713 204.553 117.935 205.17 118.227C205.661 118.459 205.422 118.898 205.573 119.291C206.175 120.868 210.684 123.115 211.722 120.733C212.988 117.827 208.175 116.952 206.705 115.981C204.806 114.725 204.756 112.578 206.205 110.937C207.475 109.498 209.712 108.583 211.558 109.408ZM219.51 119.254C219.434 119.938 219.339 120.648 219.221 121.326C219.118 121.916 219.123 122.535 218.445 122.748C217.999 122.889 217.563 122.414 217.133 122.729C216.656 123.079 216.884 120.537 216.906 120.395C217.047 119.447 217.303 117.522 218.215 116.935C219.757 115.94 219.601 118.419 219.51 119.254ZM219.411 115.282C217.775 116.318 217.35 113.38 218.001 112.424C219.617 110.052 221.991 113.65 219.411 115.282ZM186.168 113.838C186.636 114.185 186.481 113.994 186.481 114.918C185.937 114.942 186.02 114.197 186.168 113.838ZM188.017 113.038C187.859 113.405 188.567 113.845 188.796 113.903C188.81 113.784 188.464 111.997 188.017 113.038ZM99.2357 107.67C98.8005 108.3 99.0463 108.687 99.7381 108.439L99.7954 108.417L99.2357 107.67ZM107.979 101.607L107.565 101.782C107.37 101.969 107.175 102.155 106.98 102.342C107.549 102.231 107.944 102.316 107.979 101.607ZM110.273 100.721C109.988 100.14 109.008 101.293 108.986 101.563C109.215 101.428 110.605 101.398 110.273 100.721ZM111.193 98.6663C110.955 99.0014 111.004 99.27 111.339 99.4721C111.617 99.1005 111.828 98.6945 111.972 98.2533C111.601 97.9836 111.325 98.3485 111.193 98.6663ZM298.794 57.1559C298.076 57.478 298.451 58.5868 298.521 59.1876C298.854 62.0493 299.383 64.8826 299.712 67.7436C300.173 71.7676 300.238 75.8401 300.993 79.8282C301.682 83.4651 302.844 86.9969 303.457 90.6507C303.867 93.0951 303.084 95.9196 306 96.661C308.622 97.3279 311.611 97.3642 314.299 97.6574C317.762 98.0349 321.23 98.2206 324.708 98.389C326.355 98.4684 328.052 98.4891 329.682 98.7388C330.642 98.8857 331.838 99.5224 332.576 98.6336C333.295 97.7695 333.297 95.5701 333.521 94.4669C333.817 93.0104 334.083 91.5461 334.228 90.0657C334.556 86.7139 334.073 83.3948 333.629 80.0761C333.151 76.4986 332.784 72.9059 332.289 69.332C331.97 67.0282 332.007 63.3079 330.421 61.4485C328.976 65.7654 328.584 70.3487 328.512 74.875C328.496 75.8468 327.86 81.4313 326.17 78.7088C325.7 77.9516 325.693 77.5191 324.962 76.879C324.21 76.2191 323.946 75.6914 323.692 74.6922C323.231 72.8824 323.156 71.2909 322.159 69.6635C320.129 66.3511 319.306 62.2501 316.283 59.5761C316.252 62.6843 315.803 66.0459 316.381 69.1161C316.745 71.0455 318.234 73.8225 317.006 75.7311C316.394 76.6831 316.04 76.3991 315.319 75.9209C314.858 75.6144 314.928 75.4716 314.349 75.1647C313.796 74.8722 313.361 74.8859 312.837 74.4774C310.984 73.0318 310.838 70.5199 310.232 68.44C308.895 63.8486 304.274 61.0129 300.735 58.173C300.35 57.864 299.386 56.8905 298.794 57.1559ZM228.957 66.4579C226.243 67.5415 223.446 67.9542 220.562 67.3421C220.565 67.9756 221.479 69.005 220.773 69.3692C220.605 69.4561 219.644 69.0402 219.457 68.9916C218.417 68.722 217.016 68.2583 215.928 68.4794C214.779 68.7136 214.818 69.4585 215.57 70.3023C216.625 71.4867 219.273 71.5349 219.303 73.5001C219.316 74.3498 218.792 75.4143 218.68 76.2908C218.512 77.6014 218.33 78.9015 218.022 80.1886C217.492 82.4013 216.635 84.5061 215.615 86.5357C214.735 88.284 213.665 90.1058 212.028 91.2484C210.96 91.993 211.371 91.6569 211.581 92.7545C211.721 93.4896 211.697 94.037 210.748 93.8556C210.566 93.7997 210.385 93.7441 210.204 93.6882C212.43 97.336 218.059 99.6352 221.913 97.201C220.288 95.8911 222.494 93.6074 223.425 92.6399C224.82 91.1904 226.282 89.5225 227.777 88.1993C230.067 86.1736 233.064 87.1593 235.773 86.3072C238.515 85.4448 240.51 83.4989 242.282 81.3241C243.861 79.3874 245.954 77.0171 246.167 74.3955C246.209 73.8822 245.96 73.2804 246.05 72.7949C246.142 72.2999 246.442 72.2355 246.599 71.9114C246.919 71.2445 246.997 70.5579 247.048 69.7943C247.214 67.3024 246.422 66.9111 244.082 66.2674C242.718 65.8919 241.336 65.5973 239.97 65.2306C238.666 64.8808 237.503 64.2076 236.218 63.8321C233.512 63.0415 231.34 65.5066 228.957 66.4579ZM235.93 82.1172C238.083 83.4229 234.69 84.259 233.437 83.6817C231.745 82.9019 234.728 81.3881 235.93 82.1172ZM239.984 71.2606C241.937 73.5947 244.109 78.3386 239.831 79.2988C238.51 79.5951 236.467 80.074 235.14 79.7108C233.243 79.1915 233.738 76.7165 235.63 76.6079C236.751 76.5436 239.323 77.4302 239.989 76.1284C240.35 75.4224 239.529 74.3006 239.404 73.5961C239.243 72.6894 239.39 71.9648 239.984 71.2606ZM123.363 78.2697L123.365 78.2722C123.372 78.2817 123.382 78.2933 123.398 78.3066L123.405 78.313L123.391 78.2993L123.363 78.2697ZM243.853 72.0952C245.21 72.0921 244.538 74.9738 243.864 75.466C242.656 76.3491 242.14 72.0988 243.853 72.0952ZM234.91 74.2679C233.335 74.4588 233.69 70.6915 235.125 70.5758C237.007 70.4236 236.73 74.0475 234.91 74.2679ZM248.528 68.015C248.34 68.3989 248.484 72.1367 248.935 72.2074C249.056 71.2944 248.989 70.3765 248.976 69.4596L248.974 69.2279C248.985 69.2423 249.059 66.9318 248.528 68.015Z" fill="black"/>
</svg>
